<ttFont>
    <TTGlyph name=".notdef" xMin="193" yMin="0" xMax="1034" yMax="1462">
      <contour>
        <pt x="193" y="1462" on="1"/>
        <pt x="1034" y="1462" on="1"/>
        <pt x="1034" y="0" on="1"/>
        <pt x="193" y="0" on="1"/>
      </contour>
      <contour>
        <pt x="297" y="104" on="1"/>
        <pt x="930" y="104" on="1"/>
        <pt x="930" y="1358" on="1"/>
        <pt x="297" y="1358" on="1"/>
      </contour>
    </TTGlyph>
    <TTGlyph name="glyph00096" xMin="174" yMin="0" xMax="2775" yMax="1483">
      <component glyphName="uni0548" x="0" y="0" flags="0x4"/>
      <component glyphName="uni0552" x="1548" y="0" flags="0x4"/>
    </TTGlyph>
    <TTGlyph name="glyph00097" xMin="160" yMin="0" xMax="1966" yMax="1139">
      <component glyphName="uni0578" x="0" y="0" flags="0x4"/>
      <component glyphName="uni0582" x="1266" y="0" flags="0x4"/>
    </TTGlyph>
    <TTGlyph name="uni0531" xMin="174" yMin="-20" xMax="1763" yMax="1462">
      <contour>
        <pt x="1374" y="1462" on="1"/>
        <pt x="1374" y="516" on="1"/>
        <pt x="1402" y="522" on="0"/>
        <pt x="1434" y="522" on="1"/>
        <pt x="1598" y="522" on="0"/>
        <pt x="1763" y="344" on="0"/>
        <pt x="1763" y="176" on="1"/>
        <pt x="1763" y="0" on="1"/>
        <pt x="1497" y="0" on="1"/>
        <pt x="1497" y="129" on="1"/>
        <pt x="1497" y="217" on="0"/>
        <pt x="1448" y="293" on="0"/>
        <pt x="1391" y="293" on="1"/>
        <pt x="1355" y="293" on="0"/>
        <pt x="1329" y="287" on="1"/>
        <pt x="1264" y="137" on="0"/>
        <pt x="975" y="-20" on="0"/>
        <pt x="768" y="-20" on="1"/>
        <pt x="486" y="-20" on="0"/>
        <pt x="174" y="269" on="0"/>
        <pt x="174" y="520" on="1"/>
        <pt x="174" y="1462" on="1"/>
        <pt x="483" y="1462" on="1"/>
        <pt x="483" y="567" on="1"/>
        <pt x="483" y="397" on="0"/>
        <pt x="621" y="240" on="0"/>
        <pt x="776" y="240" on="1"/>
        <pt x="928" y="240" on="0"/>
        <pt x="1065" y="399" on="0"/>
        <pt x="1065" y="569" on="1"/>
        <pt x="1065" y="1462" on="1"/>
      </contour>
    </TTGlyph>
    <TTGlyph name="uni0532" xMin="174" yMin="0" xMax="1325" yMax="1483">
      <contour>
        <pt x="174" y="0" on="1"/>
        <pt x="174" y="946" on="1"/>
        <pt x="174" y="1108" on="0"/>
        <pt x="311" y="1350" on="0"/>
        <pt x="574" y="1483" on="0"/>
        <pt x="756" y="1483" on="1"/>
        <pt x="1025" y="1483" on="0"/>
        <pt x="1325" y="1195" on="0"/>
        <pt x="1325" y="942" on="1"/>
        <pt x="1325" y="881" on="1"/>
        <pt x="1016" y="881" on="1"/>
        <pt x="1016" y="920" on="1"/>
        <pt x="1016" y="1075" on="0"/>
        <pt x="888" y="1223" on="0"/>
        <pt x="748" y="1223" on="1"/>
        <pt x="608" y="1223" on="0"/>
        <pt x="483" y="1070" on="0"/>
        <pt x="483" y="920" on="1"/>
        <pt x="483" y="702" on="1"/>
        <pt x="1325" y="702" on="1"/>
        <pt x="1325" y="449" on="1"/>
        <pt x="483" y="449" on="1"/>
        <pt x="483" y="0" on="1"/>
      </contour>
    </TTGlyph>
    <TTGlyph name="uni0533" xMin="111" yMin="0" xMax="1546" yMax="1483">
      <contour>
        <pt x="1546" y="725" on="1"/>
        <pt x="1546" y="471" on="1"/>
        <pt x="1264" y="471" on="1"/>
        <pt x="1264" y="0" on="1"/>
        <pt x="954" y="0" on="1"/>
        <pt x="954" y="471" on="1"/>
        <pt x="666" y="471" on="1"/>
        <pt x="404" y="471" on="0"/>
        <pt x="111" y="736" on="0"/>
        <pt x="111" y="977" on="1"/>
        <pt x="111" y="1131" on="0"/>
        <pt x="245" y="1360" on="0"/>
        <pt x="504" y="1483" on="0"/>
        <pt x="682" y="1483" on="1"/>
        <pt x="965" y="1483" on="0"/>
        <pt x="1264" y="1170" on="0"/>
        <pt x="1264" y="870" on="1"/>
        <pt x="1264" y="725" on="1"/>
      </contour>
      <contour>
        <pt x="690" y="1229" on="1"/>
        <pt x="554" y="1229" on="0"/>
        <pt x="430" y="1105" on="0"/>
        <pt x="430" y="977" on="1"/>
        <pt x="430" y="844" on="0"/>
        <pt x="563" y="725" on="0"/>
        <pt x="705" y="725" on="1"/>
        <pt x="954" y="725" on="1"/>
        <pt x="954" y="846" on="1"/>
        <pt x="954" y="1042" on="0"/>
        <pt x="826" y="1229" on="0"/>
      </contour>
    </TTGlyph>
    <TTGlyph name="uni0534" xMin="51" yMin="0" xMax="1485" yMax="1483">
      <contour>
        <pt x="893" y="920" on="1"/>
        <pt x="893" y="1075" on="0"/>
        <pt x="765" y="1223" on="0"/>
        <pt x="625" y="1223" on="1"/>
        <pt x="485" y="1223" on="0"/>
        <pt x="360" y="1070" on="0"/>
        <pt x="360" y="920" on="1"/>
        <pt x="360" y="901" on="1"/>
        <pt x="51" y="901" on="1"/>
        <pt x="51" y="946" on="1"/>
        <pt x="51" y="1108" on="0"/>
        <pt x="188" y="1350" on="0"/>
        <pt x="451" y="1483" on="0"/>
        <pt x="633" y="1483" on="1"/>
        <pt x="902" y="1483" on="0"/>
        <pt x="1202" y="1197" on="0"/>
        <pt x="1202" y="942" on="1"/>
        <pt x="1202" y="868" on="1"/>
        <pt x="1485" y="868" on="1"/>
        <pt x="1485" y="614" on="1"/>
        <pt x="1202" y="614" on="1"/>
        <pt x="1202" y="0" on="1"/>
        <pt x="893" y="0" on="1"/>
      </contour>
    </TTGlyph>
    <TTGlyph name="uni0535" xMin="174" yMin="-20" xMax="1325" yMax="1462">
      <contour>
        <pt x="174" y="1462" on="1"/>
        <pt x="483" y="1462" on="1"/>
        <pt x="483" y="983" on="1"/>
        <pt x="1325" y="983" on="1"/>
        <pt x="1325" y="729" on="1"/>
        <pt x="483" y="729" on="1"/>
        <pt x="483" y="543" on="1"/>
        <pt x="483" y="388" on="0"/>
        <pt x="611" y="240" on="0"/>
        <pt x="752" y="240" on="1"/>
        <pt x="892" y="240" on="0"/>
        <pt x="1016" y="391" on="0"/>
        <pt x="1016" y="543" on="1"/>
        <pt x="1016" y="561" on="1"/>
        <pt x="1325" y="561" on="1"/>
        <pt x="1325" y="516" on="1"/>
        <pt x="1325" y="354" on="0"/>
        <pt x="1186" y="110" on="0"/>
        <pt x="923" y="-20" on="0"/>
        <pt x="743" y="-20" on="1"/>
        <pt x="474" y="-20" on="0"/>
        <pt x="174" y="268" on="0"/>
        <pt x="174" y="520" on="1"/>
      </contour>
    </TTGlyph>
    <TTGlyph name="uni0536" xMin="102" yMin="-287" xMax="1335" yMax="1483">
      <contour>
        <pt x="518" y="254" on="1"/>
        <pt x="763" y="427" on="0"/>
        <pt x="971" y="733" on="0"/>
        <pt x="971" y="920" on="1"/>
        <pt x="971" y="1083" on="0"/>
        <pt x="839" y="1229" on="0"/>
        <pt x="702" y="1229" on="1"/>
        <pt x="566" y="1229" on="0"/>
        <pt x="438" y="1079" on="0"/>
        <pt x="438" y="918" on="1"/>
        <pt x="438" y="901" on="1"/>
        <pt x="129" y="901" on="1"/>
        <pt x="129" y="946" on="1"/>
        <pt x="129" y="1109" on="0"/>
        <pt x="267" y="1352" on="0"/>
        <pt x="531" y="1483" on="0"/>
        <pt x="711" y="1483" on="1"/>
        <pt x="985" y="1483" on="0"/>
        <pt x="1294" y="1192" on="0"/>
        <pt x="1294" y="942" on="1"/>
        <pt x="1294" y="547" on="0"/>
        <pt x="885" y="254" on="1"/>
        <pt x="958" y="254" on="1"/>
        <pt x="1138" y="254" on="0"/>
        <pt x="1335" y="55" on="0"/>
        <pt x="1335" y="-123" on="1"/>
        <pt x="1335" y="-287" on="1"/>
        <pt x="1053" y="-287" on="1"/>
        <pt x="1053" y="-147" on="1"/>
        <pt x="1053" y="-73" on="0"/>
        <pt x="986" y="0" on="0"/>
        <pt x="911" y="0" on="1"/>
        <pt x="385" y="0" on="1"/>
        <pt x="385" y="-287" on="1"/>
        <pt x="102" y="-287" on="1"/>
        <pt x="102" y="446" on="1"/>
        <pt x="385" y="446" on="1"/>
        <pt x="385" y="254" on="1"/>
      </contour>
    </TTGlyph>
    <TTGlyph name="uni0537" xMin="174" yMin="-287" xMax="1278" yMax="1462">
      <contour>
        <pt x="483" y="1462" on="1"/>
        <pt x="483" y="909" on="1"/>
        <pt x="1237" y="909" on="1"/>
        <pt x="1237" y="655" on="1"/>
        <pt x="483" y="655" on="1"/>
        <pt x="483" y="258" on="1"/>
        <pt x="870" y="258" on="1"/>
        <pt x="1064" y="258" on="0"/>
        <pt x="1278" y="61" on="0"/>
        <pt x="1278" y="-123" on="1"/>
        <pt x="1278" y="-287" on="1"/>
        <pt x="995" y="-287" on="1"/>
        <pt x="995" y="-147" on="1"/>
        <pt x="995" y="-73" on="0"/>
        <pt x="928" y="0" on="0"/>
        <pt x="854" y="0" on="1"/>
        <pt x="174" y="0" on="1"/>
        <pt x="174" y="1462" on="1"/>
      </contour>
    </TTGlyph>
    <TTGlyph name="uni0538" xMin="174" yMin="-287" xMax="1325" yMax="1483">
      <contour>
        <pt x="174" y="946" on="1"/>
        <pt x="174" y="1108" on="0"/>
        <pt x="311" y="1350" on="0"/>
        <pt x="574" y="1483" on="0"/>
        <pt x="756" y="1483" on="1"/>
        <pt x="1025" y="1483" on="0"/>
        <pt x="1325" y="1195" on="0"/>
        <pt x="1325" y="942" on="1"/>
        <pt x="1325" y="881" on="1"/>
        <pt x="1016" y="881" on="1"/>
        <pt x="1016" y="920" on="1"/>
        <pt x="1016" y="1075" on="0"/>
        <pt x="888" y="1223" on="0"/>
        <pt x="748" y="1223" on="1"/>
        <pt x="608" y="1223" on="0"/>
        <pt x="483" y="1070" on="0"/>
        <pt x="483" y="920" on="1"/>
        <pt x="483" y="258" on="1"/>
        <pt x="918" y="258" on="1"/>
        <pt x="1118" y="258" on="0"/>
        <pt x="1325" y="66" on="0"/>
        <pt x="1325" y="-123" on="1"/>
        <pt x="1325" y="-287" on="1"/>
        <pt x="1042" y="-287" on="1"/>
        <pt x="1042" y="-147" on="1"/>
        <pt x="1042" y="-73" on="0"/>
        <pt x="975" y="0" on="0"/>
        <pt x="901" y="0" on="1"/>
        <pt x="174" y="0" on="1"/>
      </contour>
    </TTGlyph>
    <TTGlyph name="uni0539" xMin="174" yMin="0" xMax="1614" yMax="1483">
      <contour>
        <pt x="1614" y="946" on="1"/>
        <pt x="1614" y="717" on="1"/>
        <pt x="1380" y="717" on="1"/>
        <pt x="1380" y="690" on="1"/>
        <pt x="1380" y="483" on="0"/>
        <pt x="1169" y="252" on="0"/>
        <pt x="975" y="252" on="1"/>
        <pt x="803" y="252" on="0"/>
        <pt x="606" y="438" on="0"/>
        <pt x="606" y="598" on="1"/>
        <pt x="606" y="767" on="0"/>
        <pt x="810" y="946" on="0"/>
        <pt x="999" y="946" on="1"/>
        <pt x="1071" y="946" on="1"/>
        <pt x="1071" y="1083" on="0"/>
        <pt x="931" y="1223" on="0"/>
        <pt x="778" y="1223" on="1"/>
        <pt x="626" y="1223" on="0"/>
        <pt x="483" y="1077" on="0"/>
        <pt x="483" y="920" on="1"/>
        <pt x="483" y="0" on="1"/>
        <pt x="174" y="0" on="1"/>
        <pt x="174" y="942" on="1"/>
        <pt x="174" y="1196" on="0"/>
        <pt x="488" y="1483" on="0"/>
        <pt x="768" y="1483" on="1"/>
        <pt x="957" y="1483" on="0"/>
        <pt x="1235" y="1350" on="0"/>
        <pt x="1380" y="1107" on="0"/>
        <pt x="1380" y="946" on="1"/>
      </contour>
      <contour>
        <pt x="983" y="481" on="1"/>
        <pt x="1034" y="481" on="0"/>
        <pt x="1071" y="572" on="0"/>
        <pt x="1071" y="662" on="1"/>
        <pt x="1071" y="717" on="1"/>
        <pt x="1020" y="717" on="1"/>
        <pt x="889" y="717" on="0"/>
        <pt x="889" y="596" on="1"/>
        <pt x="889" y="481" on="0"/>
      </contour>
    </TTGlyph>
    <TTGlyph name="uni053A" xMin="111" yMin="-20" xMax="1546" yMax="1462">
      <contour>
        <pt x="1264" y="737" on="1"/>
        <pt x="1264" y="592" on="1"/>
        <pt x="1264" y="296" on="0"/>
        <pt x="968" y="-20" on="0"/>
        <pt x="682" y="-20" on="1"/>
        <pt x="414" y="-20" on="0"/>
        <pt x="111" y="248" on="0"/>
        <pt x="111" y="485" on="1"/>
        <pt x="111" y="724" on="0"/>
        <pt x="400" y="991" on="0"/>
        <pt x="666" y="991" on="1"/>
        <pt x="954" y="991" on="1"/>
        <pt x="954" y="1462" on="1"/>
        <pt x="1264" y="1462" on="1"/>
        <pt x="1264" y="991" on="1"/>
        <pt x="1546" y="991" on="1"/>
        <pt x="1546" y="737" on="1"/>
      </contour>
      <contour>
        <pt x="690" y="233" on="1"/>
        <pt x="826" y="233" on="0"/>
        <pt x="954" y="420" on="0"/>
        <pt x="954" y="616" on="1"/>
        <pt x="954" y="737" on="1"/>
        <pt x="705" y="737" on="1"/>
        <pt x="564" y="737" on="0"/>
        <pt x="430" y="619" on="0"/>
        <pt x="430" y="485" on="1"/>
        <pt x="430" y="357" on="0"/>
        <pt x="554" y="233" on="0"/>
      </contour>
    </TTGlyph>
    <TTGlyph name="uni053B" xMin="184" yMin="0" xMax="1430" yMax="1462">
      <contour>
        <pt x="494" y="1081" on="1"/>
        <pt x="494" y="986" on="0"/>
        <pt x="479" y="817" on="1"/>
        <pt x="496" y="817" on="1"/>
        <pt x="569" y="915" on="0"/>
        <pt x="776" y="1008" on="0"/>
        <pt x="913" y="1008" on="1"/>
        <pt x="1152" y="1008" on="0"/>
        <pt x="1430" y="734" on="0"/>
        <pt x="1430" y="498" on="1"/>
        <pt x="1430" y="387" on="1"/>
        <pt x="1120" y="387" on="1"/>
        <pt x="1120" y="461" on="1"/>
        <pt x="1120" y="604" on="0"/>
        <pt x="980" y="750" on="0"/>
        <pt x="827" y="750" on="1"/>
        <pt x="653" y="750" on="0"/>
        <pt x="494" y="572" on="0"/>
        <pt x="494" y="362" on="1"/>
        <pt x="494" y="0" on="1"/>
        <pt x="184" y="0" on="1"/>
        <pt x="184" y="1462" on="1"/>
        <pt x="494" y="1462" on="1"/>
      </contour>
    </TTGlyph>
    <TTGlyph name="uni053C" xMin="174" yMin="-287" xMax="1135" yMax="1462">
      <contour>
        <pt x="483" y="1462" on="1"/>
        <pt x="483" y="258" on="1"/>
        <pt x="727" y="258" on="1"/>
        <pt x="934" y="258" on="0"/>
        <pt x="1135" y="75" on="0"/>
        <pt x="1135" y="-123" on="1"/>
        <pt x="1135" y="-287" on="1"/>
        <pt x="852" y="-287" on="1"/>
        <pt x="852" y="-147" on="1"/>
        <pt x="852" y="-73" on="0"/>
        <pt x="785" y="0" on="0"/>
        <pt x="711" y="0" on="1"/>
        <pt x="174" y="0" on="1"/>
        <pt x="174" y="1462" on="1"/>
      </contour>
    </TTGlyph>
    <TTGlyph name="uni053D" xMin="184" yMin="-20" xMax="1894" yMax="1462">
      <contour>
        <pt x="1391" y="233" on="1"/>
        <pt x="1498" y="233" on="0"/>
        <pt x="1585" y="344" on="0"/>
        <pt x="1585" y="477" on="1"/>
        <pt x="1585" y="1118" on="1"/>
        <pt x="1894" y="1118" on="1"/>
        <pt x="1894" y="455" on="1"/>
        <pt x="1894" y="211" on="0"/>
        <pt x="1648" y="-20" on="0"/>
        <pt x="1391" y="-20" on="1"/>
        <pt x="1129" y="-20" on="0"/>
        <pt x="885" y="211" on="0"/>
        <pt x="885" y="453" on="1"/>
        <pt x="885" y="860" on="1"/>
        <pt x="494" y="860" on="1"/>
        <pt x="494" y="0" on="1"/>
        <pt x="184" y="0" on="1"/>
        <pt x="184" y="1462" on="1"/>
        <pt x="494" y="1462" on="1"/>
        <pt x="494" y="1118" on="1"/>
        <pt x="1194" y="1118" on="1"/>
        <pt x="1194" y="473" on="1"/>
        <pt x="1194" y="344" on="0"/>
        <pt x="1284" y="233" on="0"/>
      </contour>
    </TTGlyph>
    <TTGlyph name="uni053E" xMin="51" yMin="-20" xMax="1477" yMax="1485">
      <contour>
        <pt x="1061" y="1239" on="1"/>
        <pt x="943" y="1239" on="0"/>
        <pt x="844" y="1206" on="1"/>
        <pt x="936" y="1188" on="1"/>
        <pt x="1193" y="1134" on="0"/>
        <pt x="1477" y="809" on="0"/>
        <pt x="1477" y="575" on="1"/>
        <pt x="1477" y="395" on="0"/>
        <pt x="1315" y="124" on="0"/>
        <pt x="1006" y="-20" on="0"/>
        <pt x="797" y="-20" on="1"/>
        <pt x="470" y="-20" on="0"/>
        <pt x="119" y="315" on="0"/>
        <pt x="119" y="625" on="1"/>
        <pt x="119" y="871" on="0"/>
        <pt x="258" y="1075" on="1"/>
        <pt x="145" y="1120" on="0"/>
        <pt x="51" y="1294" on="0"/>
        <pt x="51" y="1450" on="1"/>
        <pt x="51" y="1462" on="1"/>
        <pt x="334" y="1462" on="1"/>
        <pt x="334" y="1386" on="0"/>
        <pt x="386" y="1286" on="0"/>
        <pt x="436" y="1270" on="1"/>
        <pt x="564" y="1372" on="0"/>
        <pt x="885" y="1485" on="0"/>
        <pt x="1065" y="1485" on="1"/>
        <pt x="1301" y="1485" on="0"/>
        <pt x="1462" y="1438" on="1"/>
        <pt x="1380" y="1196" on="1"/>
        <pt x="1278" y="1239" on="0"/>
      </contour>
      <contour>
        <pt x="567" y="1012" on="1"/>
        <pt x="438" y="848" on="0"/>
        <pt x="438" y="621" on="1"/>
        <pt x="438" y="432" on="0"/>
        <pt x="625" y="233" on="0"/>
        <pt x="797" y="233" on="1"/>
        <pt x="969" y="233" on="0"/>
        <pt x="1157" y="416" on="0"/>
        <pt x="1157" y="573" on="1"/>
        <pt x="1157" y="750" on="0"/>
        <pt x="909" y="968" on="0"/>
        <pt x="666" y="999" on="1"/>
      </contour>
    </TTGlyph>
    <TTGlyph name="uni053F" xMin="113" yMin="0" xMax="1358" yMax="1462">
      <contour>
        <pt x="1049" y="381" on="1"/>
        <pt x="1049" y="410" on="0"/>
        <pt x="1051" y="473" on="0"/>
        <pt x="1063" y="645" on="1"/>
        <pt x="1047" y="645" on="1"/>
        <pt x="906" y="455" on="0"/>
        <pt x="629" y="455" on="1"/>
        <pt x="390" y="455" on="0"/>
        <pt x="113" y="727" on="0"/>
        <pt x="113" y="965" on="1"/>
        <pt x="113" y="1462" on="1"/>
        <pt x="422" y="1462" on="1"/>
        <pt x="422" y="1001" on="1"/>
        <pt x="422" y="855" on="0"/>
        <pt x="553" y="713" on="0"/>
        <pt x="696" y="713" on="1"/>
        <pt x="879" y="713" on="0"/>
        <pt x="1049" y="892" on="0"/>
        <pt x="1049" y="1100" on="1"/>
        <pt x="1049" y="1118" on="1"/>
        <pt x="1358" y="1118" on="1"/>
        <pt x="1358" y="0" on="1"/>
        <pt x="1049" y="0" on="1"/>
      </contour>
    </TTGlyph>
    <TTGlyph name="uni0540" xMin="49" yMin="-41" xMax="1149" yMax="1503">
      <contour>
        <pt x="369" y="434" on="1"/>
        <pt x="1149" y="203" on="1"/>
        <pt x="1073" y="-41" on="1"/>
        <pt x="49" y="268" on="1"/>
        <pt x="49" y="475" on="1"/>
        <pt x="549" y="1061" on="1"/>
        <pt x="229" y="1288" on="1"/>
        <pt x="375" y="1503" on="1"/>
        <pt x="850" y="1163" on="1"/>
        <pt x="850" y="991" on="1"/>
      </contour>
    </TTGlyph>
    <TTGlyph name="uni0541" xMin="80" yMin="-51" xMax="1415" yMax="1483">
      <contour>
        <pt x="500" y="217" on="1"/>
        <pt x="559" y="217" on="0"/>
        <pt x="688" y="276" on="0"/>
        <pt x="745" y="338" on="1"/>
        <pt x="625" y="399" on="0"/>
        <pt x="526" y="399" on="1"/>
        <pt x="448" y="399" on="0"/>
        <pt x="377" y="343" on="0"/>
        <pt x="377" y="305" on="1"/>
        <pt x="377" y="265" on="0"/>
        <pt x="441" y="217" on="0"/>
      </contour>
      <contour>
        <pt x="1276" y="913" on="1"/>
        <pt x="1276" y="777" on="0"/>
        <pt x="1197" y="497" on="0"/>
        <pt x="1128" y="387" on="1"/>
        <pt x="1209" y="330" on="0"/>
        <pt x="1352" y="197" on="0"/>
        <pt x="1415" y="137" on="1"/>
        <pt x="1235" y="-51" on="1"/>
        <pt x="1099" y="90" on="0"/>
        <pt x="965" y="188" on="1"/>
        <pt x="860" y="91" on="0"/>
        <pt x="622" y="-20" on="0"/>
        <pt x="477" y="-20" on="1"/>
        <pt x="290" y="-20" on="0"/>
        <pt x="80" y="154" on="0"/>
        <pt x="80" y="309" on="1"/>
        <pt x="80" y="402" on="0"/>
        <pt x="186" y="552" on="0"/>
        <pt x="380" y="637" on="0"/>
        <pt x="508" y="637" on="1"/>
        <pt x="700" y="637" on="0"/>
        <pt x="881" y="541" on="1"/>
        <pt x="914" y="617" on="0"/>
        <pt x="952" y="811" on="0"/>
        <pt x="952" y="899" on="1"/>
        <pt x="952" y="1229" on="0"/>
        <pt x="684" y="1229" on="1"/>
        <pt x="548" y="1229" on="0"/>
        <pt x="420" y="1079" on="0"/>
        <pt x="420" y="918" on="1"/>
        <pt x="420" y="901" on="1"/>
        <pt x="111" y="901" on="1"/>
        <pt x="111" y="946" on="1"/>
        <pt x="111" y="1198" on="0"/>
        <pt x="421" y="1483" on="0"/>
        <pt x="692" y="1483" on="1"/>
        <pt x="963" y="1483" on="0"/>
        <pt x="1276" y="1179" on="0"/>
      </contour>
    </TTGlyph>
    <TTGlyph name="uni0542" xMin="51" yMin="0" xMax="1485" yMax="1483">
      <contour>
        <pt x="893" y="920" on="1"/>
        <pt x="893" y="1075" on="0"/>
        <pt x="765" y="1223" on="0"/>
        <pt x="625" y="1223" on="1"/>
        <pt x="485" y="1223" on="0"/>
        <pt x="360" y="1070" on="0"/>
        <pt x="360" y="920" on="1"/>
        <pt x="360" y="901" on="1"/>
        <pt x="51" y="901" on="1"/>
        <pt x="51" y="946" on="1"/>
        <pt x="51" y="1108" on="0"/>
        <pt x="188" y="1350" on="0"/>
        <pt x="451" y="1483" on="0"/>
        <pt x="633" y="1483" on="1"/>
        <pt x="902" y="1483" on="0"/>
        <pt x="1202" y="1197" on="0"/>
        <pt x="1202" y="942" on="1"/>
        <pt x="1202" y="254" on="1"/>
        <pt x="1485" y="254" on="1"/>
        <pt x="1485" y="0" on="1"/>
        <pt x="893" y="0" on="1"/>
      </contour>
    </TTGlyph>
    <TTGlyph name="uni0543" xMin="86" yMin="0" xMax="1417" yMax="1501">
      <contour>
        <pt x="162" y="1096" on="1"/>
        <pt x="236" y="1337" on="1"/>
        <pt x="494" y="1277" on="0"/>
        <pt x="686" y="1186" on="1"/>
        <pt x="920" y="1367" on="0"/>
        <pt x="1274" y="1501" on="1"/>
        <pt x="1382" y="1272" on="1"/>
        <pt x="1130" y="1187" on="0"/>
        <pt x="928" y="1042" on="1"/>
        <pt x="1169" y="869" on="0"/>
        <pt x="1417" y="391" on="0"/>
        <pt x="1417" y="98" on="1"/>
        <pt x="1417" y="0" on="1"/>
        <pt x="86" y="0" on="1"/>
        <pt x="90" y="279" on="0"/>
        <pt x="294" y="787" on="0"/>
        <pt x="481" y="993" on="1"/>
        <pt x="345" y="1053" on="0"/>
      </contour>
      <contour>
        <pt x="399" y="254" on="1"/>
        <pt x="1106" y="254" on="1"/>
        <pt x="1054" y="623" on="0"/>
        <pt x="717" y="862" on="1"/>
        <pt x="460" y="598" on="0"/>
      </contour>
    </TTGlyph>
    <TTGlyph name="uni0544" xMin="174" yMin="-20" xMax="1657" yMax="1462">
      <contour>
        <pt x="1374" y="516" on="1"/>
        <pt x="1374" y="354" on="0"/>
        <pt x="1229" y="110" on="0"/>
        <pt x="955" y="-20" on="0"/>
        <pt x="768" y="-20" on="1"/>
        <pt x="486" y="-20" on="0"/>
        <pt x="174" y="269" on="0"/>
        <pt x="174" y="520" on="1"/>
        <pt x="174" y="1462" on="1"/>
        <pt x="483" y="1462" on="1"/>
        <pt x="483" y="567" on="1"/>
        <pt x="483" y="397" on="0"/>
        <pt x="621" y="240" on="0"/>
        <pt x="776" y="240" on="1"/>
        <pt x="928" y="240" on="0"/>
        <pt x="1065" y="399" on="0"/>
        <pt x="1065" y="569" on="1"/>
        <pt x="1065" y="1462" on="1"/>
        <pt x="1657" y="1462" on="1"/>
        <pt x="1657" y="1208" on="1"/>
        <pt x="1374" y="1208" on="1"/>
      </contour>
    </TTGlyph>
    <TTGlyph name="uni0545" xMin="94" yMin="-20" xMax="1169" yMax="1483">
      <contour>
        <pt x="1124" y="1120" on="1"/>
        <pt x="1124" y="978" on="0"/>
        <pt x="963" y="797" on="0"/>
        <pt x="811" y="772" on="1"/>
        <pt x="811" y="764" on="1"/>
        <pt x="981" y="745" on="0"/>
        <pt x="1169" y="563" on="0"/>
        <pt x="1169" y="416" on="1"/>
        <pt x="1169" y="214" on="0"/>
        <pt x="863" y="-20" on="0"/>
        <pt x="590" y="-20" on="1"/>
        <pt x="446" y="-20" on="0"/>
        <pt x="228" y="16" on="0"/>
        <pt x="127" y="59" on="1"/>
        <pt x="127" y="322" on="1"/>
        <pt x="211" y="278" on="0"/>
        <pt x="421" y="225" on="0"/>
        <pt x="522" y="225" on="1"/>
        <pt x="693" y="225" on="0"/>
        <pt x="846" y="335" on="0"/>
        <pt x="846" y="438" on="1"/>
        <pt x="846" y="544" on="0"/>
        <pt x="686" y="637" on="0"/>
        <pt x="502" y="637" on="1"/>
        <pt x="127" y="637" on="1"/>
        <pt x="127" y="883" on="1"/>
        <pt x="471" y="883" on="1"/>
        <pt x="649" y="883" on="0"/>
        <pt x="821" y="973" on="0"/>
        <pt x="821" y="1071" on="1"/>
        <pt x="821" y="1146" on="0"/>
        <pt x="708" y="1237" on="0"/>
        <pt x="594" y="1237" on="1"/>
        <pt x="406" y="1237" on="0"/>
        <pt x="229" y="1116" on="1"/>
        <pt x="94" y="1323" on="1"/>
        <pt x="212" y="1406" on="0"/>
        <pt x="475" y="1483" on="0"/>
        <pt x="637" y="1483" on="1"/>
        <pt x="861" y="1483" on="0"/>
        <pt x="1124" y="1283" on="0"/>
      </contour>
    </TTGlyph>
    <TTGlyph name="uni0546" xMin="41" yMin="-20" xMax="1475" yMax="1462">
      <contour>
        <pt x="633" y="543" on="1"/>
        <pt x="633" y="388" on="0"/>
        <pt x="761" y="240" on="0"/>
        <pt x="901" y="240" on="1"/>
        <pt x="1041" y="240" on="0"/>
        <pt x="1165" y="391" on="0"/>
        <pt x="1165" y="543" on="1"/>
        <pt x="1165" y="561" on="1"/>
        <pt x="1475" y="561" on="1"/>
        <pt x="1475" y="516" on="1"/>
        <pt x="1475" y="354" on="0"/>
        <pt x="1336" y="111" on="0"/>
        <pt x="1073" y="-20" on="0"/>
        <pt x="893" y="-20" on="1"/>
        <pt x="624" y="-20" on="0"/>
        <pt x="324" y="266" on="0"/>
        <pt x="324" y="520" on="1"/>
        <pt x="324" y="1208" on="1"/>
        <pt x="41" y="1208" on="1"/>
        <pt x="41" y="1462" on="1"/>
        <pt x="633" y="1462" on="1"/>
      </contour>
    </TTGlyph>
    <TTGlyph name="uni0547" xMin="123" yMin="-20" xMax="1298" yMax="1483">
      <contour>
        <pt x="1268" y="1087" on="1"/>
        <pt x="1083" y="1112" on="1"/>
        <pt x="1045" y="1118" on="0"/>
        <pt x="997" y="1118" on="1"/>
        <pt x="866" y="1118" on="0"/>
        <pt x="608" y="954" on="0"/>
        <pt x="446" y="684" on="0"/>
        <pt x="446" y="543" on="1"/>
        <pt x="446" y="380" on="0"/>
        <pt x="578" y="233" on="0"/>
        <pt x="715" y="233" on="1"/>
        <pt x="851" y="233" on="0"/>
        <pt x="979" y="383" on="0"/>
        <pt x="979" y="545" on="1"/>
        <pt x="979" y="561" on="1"/>
        <pt x="1288" y="561" on="1"/>
        <pt x="1288" y="516" on="1"/>
        <pt x="1288" y="265" on="0"/>
        <pt x="979" y="-20" on="0"/>
        <pt x="707" y="-20" on="1"/>
        <pt x="433" y="-20" on="0"/>
        <pt x="123" y="271" on="0"/>
        <pt x="123" y="520" on="1"/>
        <pt x="123" y="930" on="0"/>
        <pt x="530" y="1180" on="1"/>
        <pt x="145" y="1227" on="1"/>
        <pt x="176" y="1483" on="1"/>
        <pt x="1298" y="1343" on="1"/>
      </contour>
    </TTGlyph>
    <TTGlyph name="uni0548" xMin="174" yMin="0" xMax="1374" yMax="1483">
      <contour>
        <pt x="174" y="0" on="1"/>
        <pt x="174" y="946" on="1"/>
        <pt x="174" y="1108" on="0"/>
        <pt x="317" y="1350" on="0"/>
        <pt x="591" y="1483" on="0"/>
        <pt x="780" y="1483" on="1"/>
        <pt x="1062" y="1483" on="0"/>
        <pt x="1374" y="1194" on="0"/>
        <pt x="1374" y="942" on="1"/>
        <pt x="1374" y="0" on="1"/>
        <pt x="1065" y="0" on="1"/>
        <pt x="1065" y="895" on="1"/>
        <pt x="1065" y="1065" on="0"/>
        <pt x="928" y="1223" on="0"/>
        <pt x="772" y="1223" on="1"/>
        <pt x="620" y="1223" on="0"/>
        <pt x="483" y="1063" on="0"/>
        <pt x="483" y="893" on="1"/>
        <pt x="483" y="0" on="1"/>
      </contour>
    </TTGlyph>
    <TTGlyph name="uni0549" xMin="119" yMin="-20" xMax="1294" yMax="1483">
      <contour>
        <pt x="150" y="375" on="1"/>
        <pt x="334" y="350" on="1"/>
        <pt x="372" y="344" on="0"/>
        <pt x="420" y="344" on="1"/>
        <pt x="552" y="344" on="0"/>
        <pt x="812" y="510" on="0"/>
        <pt x="971" y="782" on="0"/>
        <pt x="971" y="920" on="1"/>
        <pt x="971" y="1083" on="0"/>
        <pt x="839" y="1229" on="0"/>
        <pt x="702" y="1229" on="1"/>
        <pt x="566" y="1229" on="0"/>
        <pt x="438" y="1079" on="0"/>
        <pt x="438" y="918" on="1"/>
        <pt x="438" y="901" on="1"/>
        <pt x="129" y="901" on="1"/>
        <pt x="129" y="946" on="1"/>
        <pt x="129" y="1109" on="0"/>
        <pt x="267" y="1352" on="0"/>
        <pt x="531" y="1483" on="0"/>
        <pt x="711" y="1483" on="1"/>
        <pt x="985" y="1483" on="0"/>
        <pt x="1294" y="1192" on="0"/>
        <pt x="1294" y="942" on="1"/>
        <pt x="1294" y="533" on="0"/>
        <pt x="887" y="283" on="1"/>
        <pt x="1272" y="236" on="1"/>
        <pt x="1241" y="-20" on="1"/>
        <pt x="119" y="119" on="1"/>
      </contour>
    </TTGlyph>
    <TTGlyph name="uni054A" xMin="133" yMin="0" xMax="1630" yMax="1483">
      <contour>
        <pt x="133" y="653" on="1"/>
        <pt x="133" y="829" on="1"/>
        <pt x="133" y="1152" on="0"/>
        <pt x="517" y="1483" on="0"/>
        <pt x="889" y="1483" on="1"/>
        <pt x="1250" y="1483" on="0"/>
        <pt x="1630" y="1158" on="0"/>
        <pt x="1630" y="829" on="1"/>
        <pt x="1630" y="0" on="1"/>
        <pt x="1321" y="0" on="1"/>
        <pt x="1321" y="793" on="1"/>
        <pt x="1321" y="985" on="0"/>
        <pt x="1189" y="1184" on="0"/>
        <pt x="1036" y="1210" on="1"/>
        <pt x="1036" y="188" on="1"/>
        <pt x="727" y="348" on="1"/>
        <pt x="727" y="1210" on="1"/>
        <pt x="577" y="1186" on="0"/>
        <pt x="442" y="993" on="0"/>
        <pt x="442" y="793" on="1"/>
        <pt x="442" y="494" on="1"/>
      </contour>
    </TTGlyph>
    <TTGlyph name="uni054B" xMin="82" yMin="-287" xMax="1356" yMax="1483">
      <contour>
        <pt x="365" y="254" on="1"/>
        <pt x="481" y="254" on="1"/>
        <pt x="478" y="320" on="0"/>
        <pt x="407" y="440" on="0"/>
        <pt x="311" y="546" on="1"/>
        <pt x="230" y="635" on="0"/>
        <pt x="150" y="830" on="0"/>
        <pt x="150" y="946" on="1"/>
        <pt x="150" y="1198" on="0"/>
        <pt x="460" y="1483" on="0"/>
        <pt x="731" y="1483" on="1"/>
        <pt x="1005" y="1483" on="0"/>
        <pt x="1315" y="1192" on="0"/>
        <pt x="1315" y="942" on="1"/>
        <pt x="1315" y="547" on="0"/>
        <pt x="905" y="254" on="1"/>
        <pt x="979" y="254" on="1"/>
        <pt x="1159" y="254" on="0"/>
        <pt x="1356" y="55" on="0"/>
        <pt x="1356" y="-123" on="1"/>
        <pt x="1356" y="-287" on="1"/>
        <pt x="1073" y="-287" on="1"/>
        <pt x="1073" y="-147" on="1"/>
        <pt x="1073" y="-73" on="0"/>
        <pt x="1006" y="0" on="0"/>
        <pt x="932" y="0" on="1"/>
        <pt x="365" y="0" on="1"/>
        <pt x="365" y="-287" on="1"/>
        <pt x="82" y="-287" on="1"/>
        <pt x="82" y="365" on="1"/>
        <pt x="365" y="365" on="1"/>
      </contour>
      <contour>
        <pt x="473" y="938" on="1"/>
        <pt x="473" y="860" on="0"/>
        <pt x="521" y="731" on="0"/>
        <pt x="573" y="669" on="1"/>
        <pt x="636" y="593" on="0"/>
        <pt x="709" y="473" on="0"/>
        <pt x="729" y="403" on="1"/>
        <pt x="868" y="528" on="0"/>
        <pt x="991" y="774" on="0"/>
        <pt x="991" y="920" on="1"/>
        <pt x="991" y="1075" on="0"/>
        <pt x="850" y="1229" on="0"/>
        <pt x="723" y="1229" on="1"/>
        <pt x="601" y="1229" on="0"/>
        <pt x="473" y="1083" on="0"/>
      </contour>
    </TTGlyph>
    <TTGlyph name="uni054C" xMin="174" yMin="0" xMax="1657" yMax="1483">
      <contour>
        <pt x="1374" y="0" on="1"/>
        <pt x="1065" y="0" on="1"/>
        <pt x="1065" y="895" on="1"/>
        <pt x="1065" y="1065" on="0"/>
        <pt x="928" y="1223" on="0"/>
        <pt x="772" y="1223" on="1"/>
        <pt x="620" y="1223" on="0"/>
        <pt x="483" y="1063" on="0"/>
        <pt x="483" y="893" on="1"/>
        <pt x="483" y="0" on="1"/>
        <pt x="174" y="0" on="1"/>
        <pt x="174" y="946" on="1"/>
        <pt x="174" y="1108" on="0"/>
        <pt x="317" y="1350" on="0"/>
        <pt x="591" y="1483" on="0"/>
        <pt x="780" y="1483" on="1"/>
        <pt x="1062" y="1483" on="0"/>
        <pt x="1374" y="1194" on="0"/>
        <pt x="1374" y="942" on="1"/>
        <pt x="1374" y="868" on="1"/>
        <pt x="1657" y="868" on="1"/>
        <pt x="1657" y="614" on="1"/>
        <pt x="1374" y="614" on="1"/>
      </contour>
    </TTGlyph>
    <TTGlyph name="uni054D" xMin="174" yMin="-20" xMax="1374" yMax="1462">
      <contour>
        <pt x="1374" y="1462" on="1"/>
        <pt x="1374" y="516" on="1"/>
        <pt x="1374" y="354" on="0"/>
        <pt x="1229" y="110" on="0"/>
        <pt x="955" y="-20" on="0"/>
        <pt x="768" y="-20" on="1"/>
        <pt x="486" y="-20" on="0"/>
        <pt x="174" y="269" on="0"/>
        <pt x="174" y="520" on="1"/>
        <pt x="174" y="1462" on="1"/>
        <pt x="483" y="1462" on="1"/>
        <pt x="483" y="567" on="1"/>
        <pt x="483" y="397" on="0"/>
        <pt x="621" y="240" on="0"/>
        <pt x="776" y="240" on="1"/>
        <pt x="928" y="240" on="0"/>
        <pt x="1065" y="399" on="0"/>
        <pt x="1065" y="569" on="1"/>
        <pt x="1065" y="1462" on="1"/>
      </contour>
    </TTGlyph>
    <TTGlyph name="uni054E" xMin="92" yMin="0" xMax="1595" yMax="1462">
      <contour>
        <pt x="1595" y="254" on="1"/>
        <pt x="1595" y="0" on="1"/>
        <pt x="1004" y="0" on="1"/>
        <pt x="1004" y="381" on="1"/>
        <pt x="1004" y="410" on="0"/>
        <pt x="1006" y="473" on="0"/>
        <pt x="1018" y="645" on="1"/>
        <pt x="1001" y="645" on="1"/>
        <pt x="868" y="455" on="0"/>
        <pt x="594" y="455" on="1"/>
        <pt x="363" y="455" on="0"/>
        <pt x="92" y="734" on="0"/>
        <pt x="92" y="965" on="1"/>
        <pt x="92" y="1075" on="1"/>
        <pt x="401" y="1075" on="1"/>
        <pt x="401" y="1001" on="1"/>
        <pt x="401" y="851" on="0"/>
        <pt x="526" y="713" on="0"/>
        <pt x="655" y="713" on="1"/>
        <pt x="838" y="713" on="0"/>
        <pt x="1004" y="890" on="0"/>
        <pt x="1004" y="1100" on="1"/>
        <pt x="1004" y="1462" on="1"/>
        <pt x="1313" y="1462" on="1"/>
        <pt x="1313" y="254" on="1"/>
      </contour>
    </TTGlyph>
    <TTGlyph name="uni054F" xMin="94" yMin="-20" xMax="1047" yMax="1483">
      <contour>
        <pt x="1047" y="406" on="1"/>
        <pt x="1047" y="208" on="0"/>
        <pt x="762" y="-20" on="0"/>
        <pt x="508" y="-20" on="1"/>
        <pt x="274" y="-20" on="0"/>
        <pt x="94" y="68" on="1"/>
        <pt x="94" y="356" on="1"/>
        <pt x="242" y="290" on="0"/>
        <pt x="447" y="236" on="0"/>
        <pt x="532" y="236" on="1"/>
        <pt x="634" y="236" on="0"/>
        <pt x="743" y="314" on="0"/>
        <pt x="743" y="391" on="1"/>
        <pt x="743" y="434" on="0"/>
        <pt x="695" y="501" on="0"/>
        <pt x="602" y="563" on="0"/>
        <pt x="459" y="631" on="1"/>
        <pt x="325" y="694" on="0"/>
        <pt x="191" y="810" on="0"/>
        <pt x="111" y="964" on="0"/>
        <pt x="111" y="1067" on="1"/>
        <pt x="111" y="1261" on="0"/>
        <pt x="374" y="1483" on="0"/>
        <pt x="606" y="1483" on="1"/>
        <pt x="720" y="1483" on="0"/>
        <pt x="927" y="1430" on="0"/>
        <pt x="1040" y="1380" on="1"/>
        <pt x="940" y="1139" on="1"/>
        <pt x="823" y="1187" on="0"/>
        <pt x="670" y="1225" on="0"/>
        <pt x="596" y="1225" on="1"/>
        <pt x="508" y="1225" on="0"/>
        <pt x="414" y="1143" on="0"/>
        <pt x="414" y="1077" on="1"/>
        <pt x="414" y="1036" on="0"/>
        <pt x="454" y="975" on="0"/>
        <pt x="538" y="917" on="0"/>
        <pt x="690" y="844" on="1"/>
        <pt x="895" y="746" on="0"/>
        <pt x="1047" y="549" on="0"/>
      </contour>
    </TTGlyph>
    <TTGlyph name="uni0550" xMin="174" yMin="0" xMax="1325" yMax="1483">
      <contour>
        <pt x="174" y="0" on="1"/>
        <pt x="174" y="946" on="1"/>
        <pt x="174" y="1108" on="0"/>
        <pt x="311" y="1350" on="0"/>
        <pt x="574" y="1483" on="0"/>
        <pt x="756" y="1483" on="1"/>
        <pt x="1025" y="1483" on="0"/>
        <pt x="1325" y="1195" on="0"/>
        <pt x="1325" y="942" on="1"/>
        <pt x="1325" y="881" on="1"/>
        <pt x="1016" y="881" on="1"/>
        <pt x="1016" y="920" on="1"/>
        <pt x="1016" y="1075" on="0"/>
        <pt x="888" y="1223" on="0"/>
        <pt x="748" y="1223" on="1"/>
        <pt x="608" y="1223" on="0"/>
        <pt x="483" y="1070" on="0"/>
        <pt x="483" y="920" on="1"/>
        <pt x="483" y="0" on="1"/>
      </contour>
    </TTGlyph>
    <TTGlyph name="uni0551" xMin="98" yMin="-20" xMax="1237" yMax="1481">
      <contour>
        <pt x="838" y="1063" on="1"/>
        <pt x="838" y="1140" on="0"/>
        <pt x="727" y="1239" on="0"/>
        <pt x="643" y="1239" on="1"/>
        <pt x="560" y="1239" on="0"/>
        <pt x="451" y="1141" on="0"/>
        <pt x="451" y="1063" on="1"/>
        <pt x="451" y="983" on="0"/>
        <pt x="560" y="885" on="0"/>
        <pt x="645" y="885" on="1"/>
        <pt x="727" y="885" on="0"/>
        <pt x="838" y="984" on="0"/>
      </contour>
      <contour>
        <pt x="152" y="340" on="1"/>
        <pt x="244" y="294" on="0"/>
        <pt x="485" y="233" on="0"/>
        <pt x="618" y="233" on="1"/>
        <pt x="762" y="233" on="0"/>
        <pt x="913" y="346" on="0"/>
        <pt x="913" y="446" on="1"/>
        <pt x="913" y="544" on="0"/>
        <pt x="777" y="649" on="0"/>
        <pt x="647" y="649" on="1"/>
        <pt x="377" y="649" on="0"/>
        <pt x="233" y="518" on="1"/>
        <pt x="98" y="733" on="1"/>
        <pt x="140" y="760" on="0"/>
        <pt x="257" y="812" on="0"/>
        <pt x="301" y="819" on="1"/>
        <pt x="301" y="827" on="1"/>
        <pt x="216" y="872" on="0"/>
        <pt x="141" y="1000" on="0"/>
        <pt x="141" y="1100" on="1"/>
        <pt x="141" y="1206" on="0"/>
        <pt x="269" y="1383" on="0"/>
        <pt x="500" y="1481" on="0"/>
        <pt x="645" y="1481" on="1"/>
        <pt x="793" y="1481" on="0"/>
        <pt x="1021" y="1386" on="0"/>
        <pt x="1147" y="1209" on="0"/>
        <pt x="1147" y="1098" on="1"/>
        <pt x="1147" y="902" on="0"/>
        <pt x="965" y="813" on="1"/>
        <pt x="965" y="805" on="1"/>
        <pt x="1237" y="709" on="0"/>
        <pt x="1237" y="440" on="1"/>
        <pt x="1237" y="227" on="0"/>
        <pt x="918" y="-20" on="0"/>
        <pt x="639" y="-20" on="1"/>
        <pt x="360" y="-20" on="0"/>
        <pt x="152" y="70" on="1"/>
      </contour>
    </TTGlyph>
    <TTGlyph name="uni0552" xMin="184" yMin="0" xMax="1227" yMax="1462">
      <contour>
        <pt x="760" y="670" on="1"/>
        <pt x="760" y="753" on="0"/>
        <pt x="695" y="813" on="0"/>
        <pt x="618" y="813" on="1"/>
        <pt x="494" y="813" on="1"/>
        <pt x="494" y="0" on="1"/>
        <pt x="184" y="0" on="1"/>
        <pt x="184" y="1462" on="1"/>
        <pt x="494" y="1462" on="1"/>
        <pt x="494" y="1067" on="1"/>
        <pt x="662" y="1067" on="1"/>
        <pt x="860" y="1067" on="0"/>
        <pt x="1042" y="890" on="0"/>
        <pt x="1042" y="700" on="1"/>
        <pt x="1042" y="651" on="1"/>
        <pt x="1042" y="570" on="0"/>
        <pt x="1097" y="514" on="0"/>
        <pt x="1165" y="514" on="1"/>
        <pt x="1227" y="514" on="1"/>
        <pt x="1227" y="260" on="1"/>
        <pt x="1165" y="260" on="1"/>
        <pt x="993" y="260" on="0"/>
        <pt x="830" y="324" on="0"/>
        <pt x="760" y="475" on="0"/>
        <pt x="760" y="631" on="1"/>
      </contour>
    </TTGlyph>
    <TTGlyph name="uni0553" xMin="92" yMin="-20" xMax="1669" yMax="1483">
      <contour>
        <pt x="1020" y="444" on="1"/>
        <pt x="1034" y="444" on="1"/>
        <pt x="1195" y="444" on="0"/>
        <pt x="1378" y="613" on="0"/>
        <pt x="1378" y="760" on="1"/>
        <pt x="1378" y="896" on="0"/>
        <pt x="1208" y="1061" on="0"/>
        <pt x="1061" y="1061" on="1"/>
        <pt x="1020" y="1061" on="1"/>
      </contour>
      <contour>
        <pt x="741" y="-20" on="1"/>
        <pt x="741" y="205" on="1"/>
        <pt x="719" y="205" on="1"/>
        <pt x="533" y="205" on="0"/>
        <pt x="253" y="336" on="0"/>
        <pt x="92" y="598" on="0"/>
        <pt x="92" y="758" on="1"/>
        <pt x="92" y="913" on="0"/>
        <pt x="235" y="1162" on="0"/>
        <pt x="505" y="1303" on="0"/>
        <pt x="688" y="1303" on="1"/>
        <pt x="741" y="1303" on="1"/>
        <pt x="741" y="1483" on="1"/>
        <pt x="1020" y="1483" on="1"/>
        <pt x="1020" y="1303" on="1"/>
        <pt x="1073" y="1303" on="1"/>
        <pt x="1256" y="1303" on="0"/>
        <pt x="1526" y="1161" on="0"/>
        <pt x="1669" y="912" on="0"/>
        <pt x="1669" y="758" on="1"/>
        <pt x="1669" y="598" on="0"/>
        <pt x="1508" y="336" on="0"/>
        <pt x="1228" y="205" on="0"/>
        <pt x="1042" y="205" on="1"/>
        <pt x="1020" y="205" on="1"/>
        <pt x="1020" y="-20" on="1"/>
      </contour>
      <contour>
        <pt x="741" y="1061" on="1"/>
        <pt x="700" y="1061" on="1"/>
        <pt x="553" y="1061" on="0"/>
        <pt x="383" y="897" on="0"/>
        <pt x="383" y="760" on="1"/>
        <pt x="383" y="616" on="0"/>
        <pt x="563" y="444" on="0"/>
        <pt x="727" y="444" on="1"/>
        <pt x="741" y="444" on="1"/>
      </contour>
    </TTGlyph>
    <TTGlyph name="uni0554" xMin="31" yMin="0" xMax="1565" yMax="1483">
      <contour>
        <pt x="768" y="236" on="1"/>
        <pt x="768" y="0" on="1"/>
        <pt x="459" y="0" on="1"/>
        <pt x="459" y="236" on="1"/>
        <pt x="438" y="236" on="1"/>
        <pt x="250" y="236" on="0"/>
        <pt x="31" y="443" on="0"/>
        <pt x="31" y="616" on="1"/>
        <pt x="31" y="629" on="1"/>
        <pt x="297" y="629" on="1"/>
        <pt x="297" y="554" on="0"/>
        <pt x="364" y="481" on="0"/>
        <pt x="438" y="481" on="1"/>
        <pt x="459" y="481" on="1"/>
        <pt x="459" y="979" on="1"/>
        <pt x="459" y="1211" on="0"/>
        <pt x="734" y="1483" on="0"/>
        <pt x="979" y="1483" on="1"/>
        <pt x="1218" y="1483" on="0"/>
        <pt x="1489" y="1248" on="0"/>
        <pt x="1489" y="1044" on="1"/>
        <pt x="1489" y="835" on="0"/>
        <pt x="1230" y="614" on="0"/>
        <pt x="987" y="614" on="1"/>
        <pt x="768" y="614" on="1"/>
        <pt x="768" y="481" on="1"/>
        <pt x="1178" y="481" on="1"/>
        <pt x="1359" y="481" on="0"/>
        <pt x="1565" y="281" on="0"/>
        <pt x="1565" y="100" on="1"/>
        <pt x="1565" y="88" on="1"/>
        <pt x="1298" y="88" on="1"/>
        <pt x="1298" y="162" on="0"/>
        <pt x="1231" y="236" on="0"/>
        <pt x="1157" y="236" on="1"/>
      </contour>
      <contour>
        <pt x="971" y="1229" on="1"/>
        <pt x="863" y="1229" on="0"/>
        <pt x="768" y="1084" on="0"/>
        <pt x="768" y="944" on="1"/>
        <pt x="768" y="860" on="1"/>
        <pt x="940" y="860" on="1"/>
        <pt x="1058" y="860" on="0"/>
        <pt x="1169" y="944" on="0"/>
        <pt x="1169" y="1044" on="1"/>
        <pt x="1169" y="1138" on="0"/>
        <pt x="1074" y="1229" on="0"/>
      </contour>
    </TTGlyph>
    <TTGlyph name="uni0555" xMin="119" yMin="-20" xMax="1511" yMax="1485">
      <contour>
        <pt x="1511" y="733" on="1"/>
        <pt x="1511" y="370" on="0"/>
        <pt x="1151" y="-20" on="0"/>
        <pt x="815" y="-20" on="1"/>
        <pt x="479" y="-20" on="0"/>
        <pt x="119" y="370" on="0"/>
        <pt x="119" y="735" on="1"/>
        <pt x="119" y="1100" on="0"/>
        <pt x="480" y="1485" on="0"/>
        <pt x="817" y="1485" on="1"/>
        <pt x="1154" y="1485" on="0"/>
        <pt x="1511" y="1097" on="0"/>
      </contour>
      <contour>
        <pt x="444" y="733" on="1"/>
        <pt x="444" y="488" on="0"/>
        <pt x="630" y="240" on="0"/>
        <pt x="815" y="240" on="1"/>
        <pt x="1186" y="240" on="0"/>
        <pt x="1186" y="733" on="1"/>
        <pt x="1186" y="1227" on="0"/>
        <pt x="817" y="1227" on="1"/>
        <pt x="632" y="1227" on="0"/>
        <pt x="444" y="978" on="0"/>
      </contour>
    </TTGlyph>
    <TTGlyph name="uni0556" xMin="86" yMin="-20" xMax="1341" yMax="1462">
      <contour>
        <pt x="1341" y="395" on="1"/>
        <pt x="1341" y="193" on="0"/>
        <pt x="1013" y="-20" on="0"/>
        <pt x="711" y="-20" on="1"/>
        <pt x="543" y="-20" on="0"/>
        <pt x="251" y="32" on="0"/>
        <pt x="86" y="98" on="1"/>
        <pt x="86" y="377" on="1"/>
        <pt x="370" y="248" on="0"/>
        <pt x="604" y="229" on="1"/>
        <pt x="604" y="606" on="1"/>
        <pt x="372" y="652" on="0"/>
        <pt x="123" y="889" on="0"/>
        <pt x="123" y="1059" on="1"/>
        <pt x="123" y="1264" on="0"/>
        <pt x="394" y="1462" on="0"/>
        <pt x="672" y="1462" on="1"/>
        <pt x="834" y="1462" on="1"/>
        <pt x="834" y="868" on="1"/>
        <pt x="1097" y="814" on="0"/>
        <pt x="1341" y="591" on="0"/>
      </contour>
      <contour>
        <pt x="1032" y="403" on="1"/>
        <pt x="1032" y="478" on="0"/>
        <pt x="934" y="558" on="0"/>
        <pt x="834" y="578" on="1"/>
        <pt x="834" y="238" on="1"/>
        <pt x="938" y="247" on="0"/>
        <pt x="1032" y="330" on="0"/>
      </contour>
      <contour>
        <pt x="426" y="1065" on="1"/>
        <pt x="426" y="996" on="0"/>
        <pt x="511" y="915" on="0"/>
        <pt x="604" y="897" on="1"/>
        <pt x="604" y="1212" on="1"/>
        <pt x="594" y="1212" on="1"/>
        <pt x="503" y="1212" on="0"/>
        <pt x="426" y="1140" on="0"/>
      </contour>
    </TTGlyph>
    <TTGlyph name="uni0559" xMin="61" yMin="807" xMax="430" yMax="1483">
      <contour>
        <pt x="430" y="1321" on="1"/>
        <pt x="363" y="1316" on="0"/>
        <pt x="287" y="1229" on="0"/>
        <pt x="287" y="1165" on="1"/>
        <pt x="287" y="1022" on="0"/>
        <pt x="430" y="1022" on="1"/>
        <pt x="430" y="807" on="1"/>
        <pt x="265" y="807" on="0"/>
        <pt x="61" y="989" on="0"/>
        <pt x="61" y="1141" on="1"/>
        <pt x="61" y="1281" on="0"/>
        <pt x="238" y="1469" on="0"/>
        <pt x="389" y="1483" on="1"/>
      </contour>
    </TTGlyph>
    <TTGlyph name="uni055A" xMin="61" yMin="807" xMax="430" yMax="1483">
      <contour>
        <pt x="61" y="969" on="1"/>
        <pt x="127" y="974" on="0"/>
        <pt x="205" y="1059" on="0"/>
        <pt x="205" y="1124" on="1"/>
        <pt x="205" y="1268" on="0"/>
        <pt x="61" y="1268" on="1"/>
        <pt x="61" y="1483" on="1"/>
        <pt x="235" y="1483" on="0"/>
        <pt x="430" y="1310" on="0"/>
        <pt x="430" y="1155" on="1"/>
        <pt x="430" y="1015" on="0"/>
        <pt x="252" y="825" on="0"/>
        <pt x="102" y="807" on="1"/>
      </contour>
    </TTGlyph>
    <TTGlyph name="uni055B" xMin="57" yMin="961" xMax="451" yMax="1462">
      <contour>
        <pt x="436" y="1462" on="1"/>
        <pt x="451" y="1440" on="1"/>
        <pt x="425" y="1338" on="0"/>
        <pt x="327" y="1072" on="0"/>
        <pt x="276" y="961" on="1"/>
        <pt x="57" y="961" on="1"/>
        <pt x="80" y="1053" on="0"/>
        <pt x="140" y="1352" on="0"/>
        <pt x="156" y="1462" on="1"/>
      </contour>
    </TTGlyph>
    <TTGlyph name="uni055C" xMin="41" yMin="887" xMax="580" yMax="1462">
      <contour>
        <pt x="319" y="1384" on="1"/>
        <pt x="319" y="1428" on="0"/>
        <pt x="301" y="1462" on="1"/>
        <pt x="535" y="1462" on="1"/>
        <pt x="580" y="1402" on="0"/>
        <pt x="580" y="1335" on="1"/>
        <pt x="580" y="1293" on="0"/>
        <pt x="553" y="1225" on="0"/>
        <pt x="505" y="1169" on="0"/>
        <pt x="444" y="1126" on="1"/>
        <pt x="370" y="1075" on="0"/>
        <pt x="326" y="1033" on="0"/>
        <pt x="301" y="990" on="0"/>
        <pt x="301" y="965" on="1"/>
        <pt x="301" y="921" on="0"/>
        <pt x="319" y="887" on="1"/>
        <pt x="86" y="887" on="1"/>
        <pt x="41" y="945" on="0"/>
        <pt x="41" y="1014" on="1"/>
        <pt x="41" y="1057" on="0"/>
        <pt x="68" y="1126" on="0"/>
        <pt x="116" y="1181" on="0"/>
        <pt x="176" y="1223" on="1"/>
        <pt x="268" y="1284" on="0"/>
        <pt x="319" y="1346" on="0"/>
      </contour>
    </TTGlyph>
    <TTGlyph name="uni055D" xMin="57" yMin="961" xMax="451" yMax="1462">
      <contour>
        <pt x="352" y="1462" on="1"/>
        <pt x="369" y="1350" on="0"/>
        <pt x="428" y="1053" on="0"/>
        <pt x="451" y="961" on="1"/>
        <pt x="231" y="961" on="1"/>
        <pt x="110" y="1232" on="0"/>
        <pt x="57" y="1440" on="1"/>
        <pt x="72" y="1462" on="1"/>
      </contour>
    </TTGlyph>
    <TTGlyph name="uni055E" xMin="12" yMin="879" xMax="727" yMax="1556">
      <contour>
        <pt x="401" y="1208" on="1"/>
        <pt x="428" y="1204" on="1"/>
        <pt x="464" y="1204" on="0"/>
        <pt x="510" y="1249" on="0"/>
        <pt x="510" y="1290" on="1"/>
        <pt x="510" y="1328" on="0"/>
        <pt x="460" y="1372" on="0"/>
        <pt x="428" y="1372" on="1"/>
        <pt x="366" y="1372" on="0"/>
        <pt x="299" y="1277" on="0"/>
        <pt x="246" y="1064" on="0"/>
        <pt x="223" y="879" on="1"/>
        <pt x="12" y="909" on="1"/>
        <pt x="36" y="1133" on="0"/>
        <pt x="133" y="1422" on="0"/>
        <pt x="288" y="1556" on="0"/>
        <pt x="420" y="1556" on="1"/>
        <pt x="566" y="1556" on="0"/>
        <pt x="727" y="1415" on="0"/>
        <pt x="727" y="1288" on="1"/>
        <pt x="727" y="1202" on="0"/>
        <pt x="655" y="1082" on="0"/>
        <pt x="525" y="1020" on="0"/>
        <pt x="444" y="1020" on="1"/>
        <pt x="393" y="1020" on="0"/>
        <pt x="371" y="1027" on="1"/>
        <pt x="358" y="1030" on="1"/>
      </contour>
    </TTGlyph>
    <TTGlyph name="uni055F" xMin="61" yMin="1036" xMax="778" yMax="1556">
      <contour>
        <pt x="477" y="1333" on="1"/>
        <pt x="408" y="1360" on="0"/>
        <pt x="379" y="1360" on="1"/>
        <pt x="339" y="1360" on="0"/>
        <pt x="299" y="1327" on="0"/>
        <pt x="299" y="1303" on="1"/>
        <pt x="299" y="1261" on="0"/>
        <pt x="343" y="1233" on="0"/>
        <pt x="385" y="1233" on="1"/>
        <pt x="778" y="1233" on="1"/>
        <pt x="778" y="1036" on="1"/>
        <pt x="367" y="1036" on="1"/>
        <pt x="61" y="1036" on="0"/>
        <pt x="61" y="1300" on="1"/>
        <pt x="61" y="1418" on="0"/>
        <pt x="226" y="1556" on="0"/>
        <pt x="371" y="1556" on="1"/>
        <pt x="442" y="1556" on="0"/>
        <pt x="537" y="1526" on="1"/>
      </contour>
    </TTGlyph>
    <TTGlyph name="uni0561" xMin="154" yMin="-20" xMax="1851" yMax="1118">
      <contour>
        <pt x="850" y="1118" on="1"/>
        <pt x="1155" y="1118" on="1"/>
        <pt x="1155" y="465" on="1"/>
        <pt x="1155" y="344" on="0"/>
        <pt x="1236" y="223" on="0"/>
        <pt x="1323" y="223" on="1"/>
        <pt x="1440" y="223" on="0"/>
        <pt x="1546" y="395" on="0"/>
        <pt x="1546" y="592" on="1"/>
        <pt x="1546" y="1118" on="1"/>
        <pt x="1851" y="1118" on="1"/>
        <pt x="1851" y="0" on="1"/>
        <pt x="1618" y="0" on="1"/>
        <pt x="1577" y="143" on="1"/>
        <pt x="1561" y="143" on="1"/>
        <pt x="1517" y="67" on="0"/>
        <pt x="1343" y="-20" on="0"/>
        <pt x="1235" y="-20" on="1"/>
        <pt x="983" y="-20" on="0"/>
        <pt x="895" y="143" on="1"/>
        <pt x="868" y="143" on="1"/>
        <pt x="824" y="67" on="0"/>
        <pt x="647" y="-20" on="0"/>
        <pt x="539" y="-20" on="1"/>
        <pt x="342" y="-20" on="0"/>
        <pt x="154" y="181" on="0"/>
        <pt x="154" y="389" on="1"/>
        <pt x="154" y="1118" on="1"/>
        <pt x="459" y="1118" on="1"/>
        <pt x="459" y="465" on="1"/>
        <pt x="459" y="344" on="0"/>
        <pt x="540" y="223" on="0"/>
        <pt x="627" y="223" on="1"/>
        <pt x="739" y="223" on="0"/>
        <pt x="850" y="383" on="0"/>
        <pt x="850" y="557" on="1"/>
      </contour>
    </TTGlyph>
    <TTGlyph name="uni0562" xMin="160" yMin="-492" xMax="1192" yMax="1139">
      <contour>
        <pt x="160" y="1118" on="1"/>
        <pt x="393" y="1118" on="1"/>
        <pt x="434" y="975" on="1"/>
        <pt x="451" y="975" on="1"/>
        <pt x="502" y="1056" on="0"/>
        <pt x="681" y="1139" on="0"/>
        <pt x="795" y="1139" on="1"/>
        <pt x="990" y="1139" on="0"/>
        <pt x="1192" y="928" on="0"/>
        <pt x="1192" y="729" on="1"/>
        <pt x="1192" y="430" on="1"/>
        <pt x="887" y="430" on="1"/>
        <pt x="887" y="653" on="1"/>
        <pt x="887" y="774" on="0"/>
        <pt x="801" y="895" on="0"/>
        <pt x="707" y="895" on="1"/>
        <pt x="579" y="895" on="0"/>
        <pt x="465" y="724" on="0"/>
        <pt x="465" y="526" on="1"/>
        <pt x="465" y="246" on="1"/>
        <pt x="1192" y="246" on="1"/>
        <pt x="1192" y="0" on="1"/>
        <pt x="465" y="0" on="1"/>
        <pt x="465" y="-492" on="1"/>
        <pt x="160" y="-492" on="1"/>
      </contour>
    </TTGlyph>
    <TTGlyph name="uni0563" xMin="92" yMin="-492" xMax="1352" yMax="1139">
      <contour>
        <pt x="592" y="0" on="1"/>
        <pt x="340" y="0" on="0"/>
        <pt x="92" y="273" on="0"/>
        <pt x="92" y="557" on="1"/>
        <pt x="92" y="833" on="0"/>
        <pt x="316" y="1139" on="0"/>
        <pt x="514" y="1139" on="1"/>
        <pt x="617" y="1139" on="0"/>
        <pt x="762" y="1063" on="0"/>
        <pt x="823" y="975" on="1"/>
        <pt x="831" y="975" on="1"/>
        <pt x="858" y="1118" on="1"/>
        <pt x="1137" y="1118" on="1"/>
        <pt x="1137" y="246" on="1"/>
        <pt x="1352" y="246" on="1"/>
        <pt x="1352" y="0" on="1"/>
        <pt x="1137" y="0" on="1"/>
        <pt x="1137" y="-492" on="1"/>
        <pt x="831" y="-492" on="1"/>
        <pt x="831" y="0" on="1"/>
      </contour>
      <contour>
        <pt x="831" y="246" on="1"/>
        <pt x="831" y="555" on="1"/>
        <pt x="831" y="724" on="0"/>
        <pt x="725" y="891" on="0"/>
        <pt x="612" y="891" on="1"/>
        <pt x="403" y="891" on="0"/>
        <pt x="403" y="553" on="1"/>
        <pt x="403" y="395" on="0"/>
        <pt x="505" y="246" on="0"/>
        <pt x="623" y="246" on="1"/>
      </contour>
    </TTGlyph>
    <TTGlyph name="uni0564" xMin="160" yMin="-492" xMax="1407" yMax="1139">
      <contour>
        <pt x="1192" y="-492" on="1"/>
        <pt x="887" y="-492" on="1"/>
        <pt x="887" y="653" on="1"/>
        <pt x="887" y="774" on="0"/>
        <pt x="801" y="895" on="0"/>
        <pt x="707" y="895" on="1"/>
        <pt x="579" y="895" on="0"/>
        <pt x="465" y="724" on="0"/>
        <pt x="465" y="526" on="1"/>
        <pt x="465" y="0" on="1"/>
        <pt x="160" y="0" on="1"/>
        <pt x="160" y="1118" on="1"/>
        <pt x="393" y="1118" on="1"/>
        <pt x="434" y="975" on="1"/>
        <pt x="451" y="975" on="1"/>
        <pt x="502" y="1056" on="0"/>
        <pt x="681" y="1139" on="0"/>
        <pt x="795" y="1139" on="1"/>
        <pt x="990" y="1139" on="0"/>
        <pt x="1192" y="928" on="0"/>
        <pt x="1192" y="729" on="1"/>
        <pt x="1192" y="246" on="1"/>
        <pt x="1407" y="246" on="1"/>
        <pt x="1407" y="0" on="1"/>
        <pt x="1192" y="0" on="1"/>
      </contour>
    </TTGlyph>
    <TTGlyph name="uni0565" xMin="154" yMin="-20" xMax="1186" yMax="1556">
      <contour>
        <pt x="952" y="0" on="1"/>
        <pt x="911" y="143" on="1"/>
        <pt x="895" y="143" on="1"/>
        <pt x="846" y="65" on="0"/>
        <pt x="666" y="-20" on="0"/>
        <pt x="551" y="-20" on="1"/>
        <pt x="354" y="-20" on="0"/>
        <pt x="154" y="191" on="0"/>
        <pt x="154" y="389" on="1"/>
        <pt x="154" y="1556" on="1"/>
        <pt x="459" y="1556" on="1"/>
        <pt x="459" y="1118" on="1"/>
        <pt x="1186" y="1118" on="1"/>
        <pt x="1186" y="872" on="1"/>
        <pt x="459" y="872" on="1"/>
        <pt x="459" y="465" on="1"/>
        <pt x="459" y="344" on="0"/>
        <pt x="545" y="223" on="0"/>
        <pt x="639" y="223" on="1"/>
        <pt x="767" y="223" on="0"/>
        <pt x="881" y="394" on="0"/>
        <pt x="881" y="592" on="1"/>
        <pt x="881" y="688" on="1"/>
        <pt x="1186" y="688" on="1"/>
        <pt x="1186" y="0" on="1"/>
      </contour>
    </TTGlyph>
    <TTGlyph name="uni0566" xMin="92" yMin="-492" xMax="1352" yMax="1139">
      <contour>
        <pt x="623" y="219" on="1"/>
        <pt x="742" y="219" on="0"/>
        <pt x="850" y="359" on="0"/>
        <pt x="852" y="518" on="1"/>
        <pt x="852" y="555" on="1"/>
        <pt x="852" y="735" on="0"/>
        <pt x="741" y="891" on="0"/>
        <pt x="618" y="891" on="1"/>
        <pt x="403" y="891" on="0"/>
        <pt x="403" y="553" on="1"/>
        <pt x="403" y="385" on="0"/>
        <pt x="510" y="219" on="0"/>
      </contour>
      <contour>
        <pt x="831" y="-23" on="1"/>
        <pt x="831" y="2" on="0"/>
        <pt x="844" y="145" on="1"/>
        <pt x="831" y="145" on="1"/>
        <pt x="729" y="-20" on="0"/>
        <pt x="514" y="-20" on="1"/>
        <pt x="316" y="-20" on="0"/>
        <pt x="92" y="285" on="0"/>
        <pt x="92" y="557" on="1"/>
        <pt x="92" y="831" on="0"/>
        <pt x="321" y="1139" on="0"/>
        <pt x="520" y="1139" on="1"/>
        <pt x="732" y="1139" on="0"/>
        <pt x="844" y="975" on="1"/>
        <pt x="852" y="975" on="1"/>
        <pt x="879" y="1118" on="1"/>
        <pt x="1137" y="1118" on="1"/>
        <pt x="1137" y="-246" on="1"/>
        <pt x="1352" y="-246" on="1"/>
        <pt x="1352" y="-492" on="1"/>
        <pt x="831" y="-492" on="1"/>
      </contour>
    </TTGlyph>
    <TTGlyph name="uni0567" xMin="154" yMin="-266" xMax="1010" yMax="1556">
      <contour>
        <pt x="623" y="246" on="1"/>
        <pt x="1010" y="246" on="0"/>
        <pt x="1010" y="-135" on="1"/>
        <pt x="1010" y="-266" on="1"/>
        <pt x="727" y="-266" on="1"/>
        <pt x="727" y="-147" on="1"/>
        <pt x="727" y="-73" on="0"/>
        <pt x="660" y="0" on="0"/>
        <pt x="586" y="0" on="1"/>
        <pt x="154" y="0" on="1"/>
        <pt x="154" y="1556" on="1"/>
        <pt x="459" y="1556" on="1"/>
        <pt x="459" y="1118" on="1"/>
        <pt x="991" y="1118" on="1"/>
        <pt x="991" y="872" on="1"/>
        <pt x="459" y="872" on="1"/>
        <pt x="459" y="246" on="1"/>
      </contour>
    </TTGlyph>
    <TTGlyph name="uni0568" xMin="160" yMin="-492" xMax="1192" yMax="1139">
      <contour>
        <pt x="160" y="1118" on="1"/>
        <pt x="393" y="1118" on="1"/>
        <pt x="434" y="975" on="1"/>
        <pt x="451" y="975" on="1"/>
        <pt x="502" y="1056" on="0"/>
        <pt x="681" y="1139" on="0"/>
        <pt x="795" y="1139" on="1"/>
        <pt x="990" y="1139" on="0"/>
        <pt x="1192" y="928" on="0"/>
        <pt x="1192" y="729" on="1"/>
        <pt x="1192" y="0" on="1"/>
        <pt x="887" y="0" on="1"/>
        <pt x="887" y="653" on="1"/>
        <pt x="887" y="774" on="0"/>
        <pt x="801" y="895" on="0"/>
        <pt x="707" y="895" on="1"/>
        <pt x="579" y="895" on="0"/>
        <pt x="465" y="724" on="0"/>
        <pt x="465" y="526" on="1"/>
        <pt x="465" y="-246" on="1"/>
        <pt x="1192" y="-246" on="1"/>
        <pt x="1192" y="-492" on="1"/>
        <pt x="160" y="-492" on="1"/>
      </contour>
    </TTGlyph>
    <TTGlyph name="uni0569" xMin="160" yMin="-492" xMax="1501" yMax="1139">
      <contour>
        <pt x="946" y="707" on="1"/>
        <pt x="1004" y="705" on="1"/>
        <pt x="957" y="893" on="0"/>
        <pt x="750" y="893" on="1"/>
        <pt x="594" y="893" on="0"/>
        <pt x="465" y="732" on="0"/>
        <pt x="465" y="543" on="1"/>
        <pt x="465" y="-492" on="1"/>
        <pt x="160" y="-492" on="1"/>
        <pt x="160" y="1118" on="1"/>
        <pt x="410" y="1118" on="1"/>
        <pt x="451" y="973" on="1"/>
        <pt x="465" y="973" on="1"/>
        <pt x="528" y="1055" on="0"/>
        <pt x="718" y="1139" on="0"/>
        <pt x="834" y="1139" on="1"/>
        <pt x="1035" y="1139" on="0"/>
        <pt x="1280" y="875" on="0"/>
        <pt x="1303" y="637" on="1"/>
        <pt x="1394" y="603" on="0"/>
        <pt x="1501" y="539" on="1"/>
        <pt x="1393" y="340" on="1"/>
        <pt x="1300" y="393" on="1"/>
        <pt x="1275" y="190" on="0"/>
        <pt x="1068" y="-20" on="0"/>
        <pt x="893" y="-20" on="1"/>
        <pt x="734" y="-20" on="0"/>
        <pt x="553" y="159" on="0"/>
        <pt x="553" y="313" on="1"/>
        <pt x="553" y="513" on="0"/>
        <pt x="749" y="707" on="0"/>
      </contour>
      <contour>
        <pt x="901" y="209" on="1"/>
        <pt x="955" y="209" on="0"/>
        <pt x="1019" y="355" on="0"/>
        <pt x="1022" y="485" on="1"/>
        <pt x="971" y="492" on="0"/>
        <pt x="944" y="492" on="1"/>
        <pt x="799" y="492" on="0"/>
        <pt x="799" y="330" on="1"/>
        <pt x="799" y="209" on="0"/>
      </contour>
    </TTGlyph>
    <TTGlyph name="uni056A" xMin="92" yMin="-20" xMax="1352" yMax="1556">
      <contour>
        <pt x="1137" y="1118" on="1"/>
        <pt x="1352" y="1118" on="1"/>
        <pt x="1352" y="872" on="1"/>
        <pt x="1137" y="872" on="1"/>
        <pt x="1137" y="586" on="1"/>
        <pt x="1137" y="270" on="0"/>
        <pt x="885" y="-20" on="0"/>
        <pt x="612" y="-20" on="1"/>
        <pt x="452" y="-20" on="0"/>
        <pt x="217" y="120" on="0"/>
        <pt x="92" y="384" on="0"/>
        <pt x="92" y="559" on="1"/>
        <pt x="92" y="845" on="0"/>
        <pt x="342" y="1118" on="0"/>
        <pt x="592" y="1118" on="1"/>
        <pt x="831" y="1118" on="1"/>
        <pt x="831" y="1556" on="1"/>
        <pt x="1137" y="1556" on="1"/>
      </contour>
      <contour>
        <pt x="623" y="872" on="1"/>
        <pt x="507" y="872" on="0"/>
        <pt x="401" y="722" on="0"/>
        <pt x="401" y="559" on="1"/>
        <pt x="401" y="394" on="0"/>
        <pt x="513" y="223" on="0"/>
        <pt x="612" y="223" on="1"/>
        <pt x="698" y="223" on="0"/>
        <pt x="787" y="290" on="0"/>
        <pt x="831" y="437" on="0"/>
        <pt x="831" y="565" on="1"/>
        <pt x="831" y="872" on="1"/>
      </contour>
    </TTGlyph>
    <TTGlyph name="uni056B" xMin="160" yMin="-492" xMax="1192" yMax="1556">
      <contour>
        <pt x="1192" y="0" on="1"/>
        <pt x="887" y="0" on="1"/>
        <pt x="887" y="653" on="1"/>
        <pt x="887" y="895" on="0"/>
        <pt x="707" y="895" on="1"/>
        <pt x="579" y="895" on="0"/>
        <pt x="465" y="721" on="0"/>
        <pt x="465" y="526" on="1"/>
        <pt x="465" y="-492" on="1"/>
        <pt x="160" y="-492" on="1"/>
        <pt x="160" y="1556" on="1"/>
        <pt x="465" y="1556" on="1"/>
        <pt x="465" y="1239" on="1"/>
        <pt x="465" y="1210" on="0"/>
        <pt x="463" y="1147" on="0"/>
        <pt x="451" y="975" on="1"/>
        <pt x="467" y="975" on="1"/>
        <pt x="569" y="1139" on="0"/>
        <pt x="791" y="1139" on="1"/>
        <pt x="988" y="1139" on="0"/>
        <pt x="1192" y="927" on="0"/>
        <pt x="1192" y="729" on="1"/>
      </contour>
    </TTGlyph>
    <TTGlyph name="uni056C" xMin="160" yMin="-492" xMax="680" yMax="1118">
      <contour>
        <pt x="160" y="1118" on="1"/>
        <pt x="465" y="1118" on="1"/>
        <pt x="465" y="-246" on="1"/>
        <pt x="680" y="-246" on="1"/>
        <pt x="680" y="-492" on="1"/>
        <pt x="160" y="-492" on="1"/>
      </contour>
    </TTGlyph>
    <TTGlyph name="uni056D" xMin="160" yMin="-492" xMax="1858" yMax="1556">
      <contour>
        <pt x="856" y="653" on="1"/>
        <pt x="856" y="774" on="0"/>
        <pt x="775" y="895" on="0"/>
        <pt x="688" y="895" on="1"/>
        <pt x="571" y="895" on="0"/>
        <pt x="465" y="723" on="0"/>
        <pt x="465" y="526" on="1"/>
        <pt x="465" y="-492" on="1"/>
        <pt x="160" y="-492" on="1"/>
        <pt x="160" y="1556" on="1"/>
        <pt x="465" y="1556" on="1"/>
        <pt x="465" y="1239" on="1"/>
        <pt x="465" y="1210" on="0"/>
        <pt x="463" y="1147" on="0"/>
        <pt x="451" y="975" on="1"/>
        <pt x="467" y="975" on="1"/>
        <pt x="567" y="1139" on="0"/>
        <pt x="776" y="1139" on="1"/>
        <pt x="965" y="1139" on="0"/>
        <pt x="1161" y="930" on="0"/>
        <pt x="1161" y="729" on="1"/>
        <pt x="1161" y="461" on="1"/>
        <pt x="1161" y="348" on="0"/>
        <pt x="1252" y="225" on="0"/>
        <pt x="1358" y="225" on="1"/>
        <pt x="1457" y="225" on="0"/>
        <pt x="1552" y="340" on="0"/>
        <pt x="1552" y="461" on="1"/>
        <pt x="1552" y="1118" on="1"/>
        <pt x="1858" y="1118" on="1"/>
        <pt x="1858" y="422" on="1"/>
        <pt x="1858" y="198" on="0"/>
        <pt x="1609" y="-20" on="0"/>
        <pt x="1358" y="-20" on="1"/>
        <pt x="1108" y="-20" on="0"/>
        <pt x="856" y="193" on="0"/>
        <pt x="856" y="422" on="1"/>
      </contour>
    </TTGlyph>
    <TTGlyph name="uni056E" xMin="92" yMin="-20" xMax="1350" yMax="1577">
      <contour>
        <pt x="274" y="1577" on="1"/>
        <pt x="700" y="1395" on="0"/>
        <pt x="934" y="1133" on="1"/>
        <pt x="1166" y="1109" on="0"/>
        <pt x="1350" y="1024" on="1"/>
        <pt x="1266" y="795" on="1"/>
        <pt x="1197" y="832" on="0"/>
        <pt x="1108" y="856" on="1"/>
        <pt x="1178" y="688" on="0"/>
        <pt x="1178" y="510" on="1"/>
        <pt x="1178" y="251" on="0"/>
        <pt x="894" y="-20" on="0"/>
        <pt x="623" y="-20" on="1"/>
        <pt x="369" y="-20" on="0"/>
        <pt x="92" y="262" on="0"/>
        <pt x="92" y="522" on="1"/>
        <pt x="92" y="753" on="0"/>
        <pt x="344" y="1059" on="0"/>
        <pt x="569" y="1112" on="1"/>
        <pt x="400" y="1261" on="0"/>
        <pt x="156" y="1370" on="1"/>
      </contour>
      <contour>
        <pt x="866" y="510" on="1"/>
        <pt x="866" y="716" on="0"/>
        <pt x="756" y="895" on="1"/>
        <pt x="406" y="869" on="0"/>
        <pt x="406" y="518" on="1"/>
        <pt x="406" y="370" on="0"/>
        <pt x="521" y="225" on="0"/>
        <pt x="625" y="225" on="1"/>
        <pt x="739" y="225" on="0"/>
        <pt x="866" y="371" on="0"/>
      </contour>
    </TTGlyph>
    <TTGlyph name="uni056F" xMin="154" yMin="-492" xMax="1186" yMax="1556">
      <contour>
        <pt x="889" y="143" on="1"/>
        <pt x="840" y="65" on="0"/>
        <pt x="665" y="-20" on="0"/>
        <pt x="551" y="-20" on="1"/>
        <pt x="354" y="-20" on="0"/>
        <pt x="154" y="191" on="0"/>
        <pt x="154" y="389" on="1"/>
        <pt x="154" y="1556" on="1"/>
        <pt x="459" y="1556" on="1"/>
        <pt x="459" y="465" on="1"/>
        <pt x="459" y="344" on="0"/>
        <pt x="545" y="223" on="0"/>
        <pt x="639" y="223" on="1"/>
        <pt x="767" y="223" on="0"/>
        <pt x="881" y="394" on="0"/>
        <pt x="881" y="592" on="1"/>
        <pt x="881" y="1118" on="1"/>
        <pt x="1186" y="1118" on="1"/>
        <pt x="1186" y="-492" on="1"/>
        <pt x="881" y="-492" on="1"/>
        <pt x="881" y="-121" on="1"/>
        <pt x="881" y="-33" on="0"/>
        <pt x="897" y="143" on="1"/>
      </contour>
    </TTGlyph>
    <TTGlyph name="uni0570" xMin="160" yMin="0" xMax="1192" yMax="1556">
      <contour>
        <pt x="1192" y="0" on="1"/>
        <pt x="887" y="0" on="1"/>
        <pt x="887" y="653" on="1"/>
        <pt x="887" y="895" on="0"/>
        <pt x="707" y="895" on="1"/>
        <pt x="579" y="895" on="0"/>
        <pt x="465" y="721" on="0"/>
        <pt x="465" y="526" on="1"/>
        <pt x="465" y="0" on="1"/>
        <pt x="160" y="0" on="1"/>
        <pt x="160" y="1556" on="1"/>
        <pt x="465" y="1556" on="1"/>
        <pt x="465" y="1239" on="1"/>
        <pt x="465" y="1210" on="0"/>
        <pt x="463" y="1147" on="0"/>
        <pt x="451" y="975" on="1"/>
        <pt x="467" y="975" on="1"/>
        <pt x="569" y="1139" on="0"/>
        <pt x="791" y="1139" on="1"/>
        <pt x="988" y="1139" on="0"/>
        <pt x="1192" y="927" on="0"/>
        <pt x="1192" y="729" on="1"/>
      </contour>
    </TTGlyph>
    <TTGlyph name="uni0571" xMin="92" yMin="-20" xMax="1130" yMax="1595">
      <contour>
        <pt x="1130" y="0" on="1"/>
        <pt x="897" y="0" on="1"/>
        <pt x="856" y="143" on="1"/>
        <pt x="840" y="143" on="1"/>
        <pt x="793" y="68" on="0"/>
        <pt x="617" y="-20" on="0"/>
        <pt x="514" y="-20" on="1"/>
        <pt x="296" y="-20" on="0"/>
        <pt x="92" y="224" on="0"/>
        <pt x="92" y="461" on="1"/>
        <pt x="92" y="629" on="0"/>
        <pt x="197" y="882" on="0"/>
        <pt x="348" y="1044" on="1"/>
        <pt x="443" y="1146" on="0"/>
        <pt x="502" y="1276" on="0"/>
        <pt x="502" y="1362" on="1"/>
        <pt x="502" y="1418" on="0"/>
        <pt x="467" y="1483" on="1"/>
        <pt x="725" y="1595" on="1"/>
        <pt x="811" y="1500" on="0"/>
        <pt x="811" y="1366" on="1"/>
        <pt x="811" y="1228" on="0"/>
        <pt x="752" y="1108" on="1"/>
        <pt x="945" y="1022" on="0"/>
        <pt x="1130" y="706" on="0"/>
        <pt x="1130" y="473" on="1"/>
      </contour>
      <contour>
        <pt x="825" y="492" on="1"/>
        <pt x="825" y="632" on="0"/>
        <pt x="707" y="844" on="0"/>
        <pt x="596" y="895" on="1"/>
        <pt x="515" y="807" on="0"/>
        <pt x="442" y="687" on="0"/>
        <pt x="403" y="554" on="0"/>
        <pt x="403" y="477" on="1"/>
        <pt x="403" y="223" on="0"/>
        <pt x="584" y="223" on="1"/>
        <pt x="714" y="223" on="0"/>
        <pt x="825" y="344" on="0"/>
      </contour>
    </TTGlyph>
    <TTGlyph name="uni0572" xMin="160" yMin="-492" xMax="1407" yMax="1139">
      <contour>
        <pt x="887" y="-492" on="1"/>
        <pt x="887" y="653" on="1"/>
        <pt x="887" y="774" on="0"/>
        <pt x="801" y="895" on="0"/>
        <pt x="707" y="895" on="1"/>
        <pt x="579" y="895" on="0"/>
        <pt x="465" y="724" on="0"/>
        <pt x="465" y="526" on="1"/>
        <pt x="465" y="0" on="1"/>
        <pt x="160" y="0" on="1"/>
        <pt x="160" y="1118" on="1"/>
        <pt x="393" y="1118" on="1"/>
        <pt x="434" y="975" on="1"/>
        <pt x="451" y="975" on="1"/>
        <pt x="502" y="1056" on="0"/>
        <pt x="681" y="1139" on="0"/>
        <pt x="795" y="1139" on="1"/>
        <pt x="990" y="1139" on="0"/>
        <pt x="1192" y="928" on="0"/>
        <pt x="1192" y="729" on="1"/>
        <pt x="1192" y="-246" on="1"/>
        <pt x="1407" y="-246" on="1"/>
        <pt x="1407" y="-492" on="1"/>
      </contour>
    </TTGlyph>
    <TTGlyph name="uni0573" xMin="41" yMin="-20" xMax="1210" yMax="1567">
      <contour>
        <pt x="483" y="1118" on="1"/>
        <pt x="813" y="1118" on="1"/>
        <pt x="1017" y="1118" on="0"/>
        <pt x="1210" y="924" on="0"/>
        <pt x="1210" y="709" on="1"/>
        <pt x="1210" y="0" on="1"/>
        <pt x="977" y="0" on="1"/>
        <pt x="936" y="143" on="1"/>
        <pt x="920" y="143" on="1"/>
        <pt x="871" y="65" on="0"/>
        <pt x="691" y="-20" on="0"/>
        <pt x="575" y="-20" on="1"/>
        <pt x="380" y="-20" on="0"/>
        <pt x="178" y="189" on="0"/>
        <pt x="178" y="389" on="1"/>
        <pt x="178" y="872" on="1"/>
        <pt x="41" y="872" on="1"/>
        <pt x="41" y="1118" on="1"/>
        <pt x="178" y="1118" on="1"/>
        <pt x="178" y="1348" on="0"/>
        <pt x="438" y="1567" on="0"/>
        <pt x="729" y="1567" on="1"/>
        <pt x="929" y="1567" on="0"/>
        <pt x="1120" y="1491" on="1"/>
        <pt x="1042" y="1262" on="1"/>
        <pt x="938" y="1300" on="0"/>
        <pt x="796" y="1325" on="0"/>
        <pt x="719" y="1325" on="1"/>
        <pt x="594" y="1325" on="0"/>
        <pt x="483" y="1236" on="0"/>
        <pt x="483" y="1139" on="1"/>
      </contour>
      <contour>
        <pt x="483" y="465" on="1"/>
        <pt x="483" y="344" on="0"/>
        <pt x="570" y="223" on="0"/>
        <pt x="664" y="223" on="1"/>
        <pt x="792" y="223" on="0"/>
        <pt x="905" y="394" on="0"/>
        <pt x="905" y="592" on="1"/>
        <pt x="905" y="678" on="1"/>
        <pt x="905" y="787" on="0"/>
        <pt x="824" y="872" on="0"/>
        <pt x="725" y="872" on="1"/>
        <pt x="483" y="872" on="1"/>
      </contour>
    </TTGlyph>
    <TTGlyph name="uni0574" xMin="154" yMin="-20" xMax="1262" yMax="1567">
      <contour>
        <pt x="1186" y="0" on="1"/>
        <pt x="952" y="0" on="1"/>
        <pt x="911" y="143" on="1"/>
        <pt x="895" y="143" on="1"/>
        <pt x="846" y="65" on="0"/>
        <pt x="666" y="-20" on="0"/>
        <pt x="551" y="-20" on="1"/>
        <pt x="354" y="-20" on="0"/>
        <pt x="154" y="191" on="0"/>
        <pt x="154" y="389" on="1"/>
        <pt x="154" y="1118" on="1"/>
        <pt x="459" y="1118" on="1"/>
        <pt x="459" y="465" on="1"/>
        <pt x="459" y="344" on="0"/>
        <pt x="545" y="223" on="0"/>
        <pt x="639" y="223" on="1"/>
        <pt x="767" y="223" on="0"/>
        <pt x="881" y="394" on="0"/>
        <pt x="881" y="592" on="1"/>
        <pt x="881" y="981" on="1"/>
        <pt x="727" y="1048" on="0"/>
        <pt x="727" y="1253" on="1"/>
        <pt x="727" y="1399" on="0"/>
        <pt x="909" y="1567" on="0"/>
        <pt x="1069" y="1567" on="1"/>
        <pt x="1175" y="1567" on="0"/>
        <pt x="1262" y="1518" on="1"/>
        <pt x="1190" y="1327" on="1"/>
        <pt x="1117" y="1362" on="0"/>
        <pt x="1075" y="1362" on="1"/>
        <pt x="956" y="1362" on="0"/>
        <pt x="956" y="1239" on="1"/>
        <pt x="956" y="1179" on="0"/>
        <pt x="1024" y="1118" on="0"/>
        <pt x="1102" y="1118" on="1"/>
        <pt x="1186" y="1118" on="1"/>
      </contour>
    </TTGlyph>
    <TTGlyph name="uni0575" xMin="-131" yMin="-492" xMax="465" yMax="1118">
      <contour>
        <pt x="70" y="-492" on="1"/>
        <pt x="-47" y="-492" on="0"/>
        <pt x="-131" y="-467" on="1"/>
        <pt x="-131" y="-227" on="1"/>
        <pt x="-61" y="-246" on="0"/>
        <pt x="12" y="-246" on="1"/>
        <pt x="89" y="-246" on="0"/>
        <pt x="160" y="-160" on="0"/>
        <pt x="160" y="-76" on="1"/>
        <pt x="160" y="1118" on="1"/>
        <pt x="465" y="1118" on="1"/>
        <pt x="465" y="-121" on="1"/>
        <pt x="465" y="-299" on="0"/>
        <pt x="262" y="-492" on="0"/>
      </contour>
    </TTGlyph>
    <TTGlyph name="uni0576" xMin="-10" yMin="-20" xMax="1206" yMax="1556">
      <contour>
        <pt x="479" y="465" on="1"/>
        <pt x="479" y="344" on="0"/>
        <pt x="565" y="223" on="0"/>
        <pt x="659" y="223" on="1"/>
        <pt x="787" y="223" on="0"/>
        <pt x="901" y="394" on="0"/>
        <pt x="901" y="592" on="1"/>
        <pt x="901" y="1118" on="1"/>
        <pt x="1206" y="1118" on="1"/>
        <pt x="1206" y="0" on="1"/>
        <pt x="973" y="0" on="1"/>
        <pt x="932" y="143" on="1"/>
        <pt x="915" y="143" on="1"/>
        <pt x="865" y="64" on="0"/>
        <pt x="686" y="-20" on="0"/>
        <pt x="571" y="-20" on="1"/>
        <pt x="376" y="-20" on="0"/>
        <pt x="174" y="189" on="0"/>
        <pt x="174" y="389" on="1"/>
        <pt x="174" y="1311" on="1"/>
        <pt x="-10" y="1311" on="1"/>
        <pt x="-10" y="1556" on="1"/>
        <pt x="479" y="1556" on="1"/>
      </contour>
    </TTGlyph>
    <TTGlyph name="uni0577" xMin="20" yMin="-492" xMax="993" yMax="1139">
      <contour>
        <pt x="983" y="-492" on="1"/>
        <pt x="322" y="-492" on="1"/>
        <pt x="186" y="-492" on="0"/>
        <pt x="20" y="-346" on="0"/>
        <pt x="20" y="-229" on="1"/>
        <pt x="20" y="-144" on="0"/>
        <pt x="79" y="-24" on="0"/>
        <pt x="209" y="111" on="0"/>
        <pt x="324" y="193" on="1"/>
        <pt x="465" y="293" on="0"/>
        <pt x="618" y="445" on="0"/>
        <pt x="682" y="587" on="0"/>
        <pt x="682" y="684" on="1"/>
        <pt x="682" y="786" on="0"/>
        <pt x="565" y="893" on="0"/>
        <pt x="451" y="893" on="1"/>
        <pt x="287" y="893" on="0"/>
        <pt x="131" y="805" on="1"/>
        <pt x="23" y="1028" on="1"/>
        <pt x="216" y="1139" on="0"/>
        <pt x="453" y="1139" on="1"/>
        <pt x="719" y="1139" on="0"/>
        <pt x="993" y="916" on="0"/>
        <pt x="993" y="700" on="1"/>
        <pt x="993" y="565" on="0"/>
        <pt x="903" y="357" on="0"/>
        <pt x="708" y="150" on="0"/>
        <pt x="549" y="39" on="1"/>
        <pt x="466" y="-19" on="0"/>
        <pt x="373" y="-102" on="0"/>
        <pt x="332" y="-161" on="0"/>
        <pt x="332" y="-199" on="1"/>
        <pt x="332" y="-246" on="0"/>
        <pt x="408" y="-246" on="1"/>
        <pt x="983" y="-246" on="1"/>
      </contour>
    </TTGlyph>
    <TTGlyph name="uni0578" xMin="160" yMin="0" xMax="1192" yMax="1139">
      <contour>
        <pt x="1192" y="0" on="1"/>
        <pt x="887" y="0" on="1"/>
        <pt x="887" y="653" on="1"/>
        <pt x="887" y="774" on="0"/>
        <pt x="801" y="895" on="0"/>
        <pt x="707" y="895" on="1"/>
        <pt x="579" y="895" on="0"/>
        <pt x="465" y="724" on="0"/>
        <pt x="465" y="526" on="1"/>
        <pt x="465" y="0" on="1"/>
        <pt x="160" y="0" on="1"/>
        <pt x="160" y="1118" on="1"/>
        <pt x="393" y="1118" on="1"/>
        <pt x="434" y="975" on="1"/>
        <pt x="451" y="975" on="1"/>
        <pt x="502" y="1056" on="0"/>
        <pt x="681" y="1139" on="0"/>
        <pt x="795" y="1139" on="1"/>
        <pt x="990" y="1139" on="0"/>
        <pt x="1192" y="928" on="0"/>
        <pt x="1192" y="729" on="1"/>
      </contour>
    </TTGlyph>
    <TTGlyph name="uni0579" xMin="-106" yMin="-492" xMax="897" yMax="1159">
      <contour>
        <pt x="205" y="-199" on="1"/>
        <pt x="205" y="-246" on="0"/>
        <pt x="281" y="-246" on="1"/>
        <pt x="897" y="-246" on="1"/>
        <pt x="897" y="-492" on="1"/>
        <pt x="195" y="-492" on="1"/>
        <pt x="60" y="-492" on="0"/>
        <pt x="-106" y="-348" on="0"/>
        <pt x="-106" y="-229" on="1"/>
        <pt x="-106" y="-116" on="0"/>
        <pt x="10" y="35" on="0"/>
        <pt x="141" y="106" on="1"/>
        <pt x="306" y="200" on="0"/>
        <pt x="358" y="237" on="0"/>
        <pt x="381" y="270" on="0"/>
        <pt x="381" y="295" on="1"/>
        <pt x="381" y="341" on="0"/>
        <pt x="332" y="410" on="1"/>
        <pt x="246" y="530" on="1"/>
        <pt x="184" y="614" on="0"/>
        <pt x="139" y="727" on="0"/>
        <pt x="139" y="780" on="1"/>
        <pt x="139" y="857" on="0"/>
        <pt x="220" y="969" on="0"/>
        <pt x="309" y="1024" on="1"/>
        <pt x="535" y="1159" on="1"/>
        <pt x="686" y="938" on="1"/>
        <pt x="560" y="865" on="0"/>
        <pt x="501" y="822" on="0"/>
        <pt x="471" y="784" on="0"/>
        <pt x="471" y="766" on="1"/>
        <pt x="471" y="735" on="0"/>
        <pt x="497" y="684" on="0"/>
        <pt x="537" y="631" on="1"/>
        <pt x="578" y="575" on="1"/>
        <pt x="638" y="495" on="0"/>
        <pt x="709" y="352" on="0"/>
        <pt x="709" y="281" on="1"/>
        <pt x="709" y="114" on="0"/>
        <pt x="471" y="-10" on="1"/>
        <pt x="301" y="-104" on="1"/>
        <pt x="247" y="-135" on="0"/>
        <pt x="205" y="-177" on="0"/>
      </contour>
    </TTGlyph>
    <TTGlyph name="uni057A" xMin="154" yMin="-492" xMax="1851" yMax="1118">
      <contour>
        <pt x="1554" y="143" on="1"/>
        <pt x="1510" y="67" on="0"/>
        <pt x="1344" y="-20" on="0"/>
        <pt x="1235" y="-20" on="1"/>
        <pt x="983" y="-20" on="0"/>
        <pt x="895" y="143" on="1"/>
        <pt x="868" y="143" on="1"/>
        <pt x="824" y="67" on="0"/>
        <pt x="647" y="-20" on="0"/>
        <pt x="539" y="-20" on="1"/>
        <pt x="342" y="-20" on="0"/>
        <pt x="154" y="181" on="0"/>
        <pt x="154" y="389" on="1"/>
        <pt x="154" y="1118" on="1"/>
        <pt x="459" y="1118" on="1"/>
        <pt x="459" y="465" on="1"/>
        <pt x="459" y="344" on="0"/>
        <pt x="540" y="223" on="0"/>
        <pt x="627" y="223" on="1"/>
        <pt x="739" y="223" on="0"/>
        <pt x="850" y="383" on="0"/>
        <pt x="850" y="557" on="1"/>
        <pt x="850" y="1118" on="1"/>
        <pt x="1155" y="1118" on="1"/>
        <pt x="1155" y="465" on="1"/>
        <pt x="1155" y="344" on="0"/>
        <pt x="1236" y="223" on="0"/>
        <pt x="1323" y="223" on="1"/>
        <pt x="1440" y="223" on="0"/>
        <pt x="1546" y="395" on="0"/>
        <pt x="1546" y="592" on="1"/>
        <pt x="1546" y="1118" on="1"/>
        <pt x="1851" y="1118" on="1"/>
        <pt x="1851" y="-492" on="1"/>
        <pt x="1546" y="-492" on="1"/>
        <pt x="1546" y="-121" on="1"/>
        <pt x="1546" y="-44" on="0"/>
        <pt x="1563" y="143" on="1"/>
      </contour>
    </TTGlyph>
    <TTGlyph name="uni057B" xMin="92" yMin="-492" xMax="1188" yMax="1139">
      <contour>
        <pt x="137" y="-229" on="1"/>
        <pt x="137" y="-155" on="0"/>
        <pt x="189" y="-47" on="0"/>
        <pt x="304" y="74" on="0"/>
        <pt x="401" y="143" on="1"/>
        <pt x="385" y="177" on="0"/>
        <pt x="327" y="233" on="0"/>
        <pt x="259" y="291" on="0"/>
        <pt x="187" y="359" on="0"/>
        <pt x="129" y="449" on="0"/>
        <pt x="92" y="570" on="0"/>
        <pt x="92" y="653" on="1"/>
        <pt x="92" y="798" on="0"/>
        <pt x="221" y="1019" on="0"/>
        <pt x="468" y="1139" on="0"/>
        <pt x="631" y="1139" on="1"/>
        <pt x="894" y="1139" on="0"/>
        <pt x="1188" y="890" on="0"/>
        <pt x="1188" y="664" on="1"/>
        <pt x="1188" y="547" on="0"/>
        <pt x="1088" y="356" on="0"/>
        <pt x="868" y="153" on="0"/>
        <pt x="692" y="39" on="1"/>
        <pt x="601" y="-20" on="0"/>
        <pt x="496" y="-104" on="0"/>
        <pt x="449" y="-164" on="0"/>
        <pt x="449" y="-199" on="1"/>
        <pt x="449" y="-246" on="0"/>
        <pt x="528" y="-246" on="1"/>
        <pt x="1128" y="-246" on="1"/>
        <pt x="1128" y="-492" on="1"/>
        <pt x="446" y="-492" on="1"/>
        <pt x="310" y="-492" on="0"/>
        <pt x="137" y="-347" on="0"/>
      </contour>
      <contour>
        <pt x="403" y="645" on="1"/>
        <pt x="403" y="541" on="0"/>
        <pt x="501" y="453" on="1"/>
        <pt x="561" y="398" on="0"/>
        <pt x="617" y="330" on="0"/>
        <pt x="627" y="295" on="1"/>
        <pt x="772" y="400" on="0"/>
        <pt x="877" y="556" on="0"/>
        <pt x="877" y="666" on="1"/>
        <pt x="877" y="776" on="0"/>
        <pt x="748" y="893" on="0"/>
        <pt x="631" y="893" on="1"/>
        <pt x="524" y="893" on="0"/>
        <pt x="403" y="765" on="0"/>
      </contour>
    </TTGlyph>
    <TTGlyph name="uni057C" xMin="160" yMin="0" xMax="1407" yMax="1139">
      <contour>
        <pt x="887" y="653" on="1"/>
        <pt x="887" y="774" on="0"/>
        <pt x="801" y="895" on="0"/>
        <pt x="707" y="895" on="1"/>
        <pt x="579" y="895" on="0"/>
        <pt x="465" y="724" on="0"/>
        <pt x="465" y="526" on="1"/>
        <pt x="465" y="0" on="1"/>
        <pt x="160" y="0" on="1"/>
        <pt x="160" y="1118" on="1"/>
        <pt x="393" y="1118" on="1"/>
        <pt x="434" y="975" on="1"/>
        <pt x="451" y="975" on="1"/>
        <pt x="502" y="1056" on="0"/>
        <pt x="681" y="1139" on="0"/>
        <pt x="795" y="1139" on="1"/>
        <pt x="990" y="1139" on="0"/>
        <pt x="1192" y="928" on="0"/>
        <pt x="1192" y="729" on="1"/>
        <pt x="1192" y="246" on="1"/>
        <pt x="1407" y="246" on="1"/>
        <pt x="1407" y="0" on="1"/>
        <pt x="887" y="0" on="1"/>
      </contour>
    </TTGlyph>
    <TTGlyph name="uni057D" xMin="154" yMin="-20" xMax="1186" yMax="1118">
      <contour>
        <pt x="952" y="0" on="1"/>
        <pt x="911" y="143" on="1"/>
        <pt x="895" y="143" on="1"/>
        <pt x="846" y="65" on="0"/>
        <pt x="666" y="-20" on="0"/>
        <pt x="551" y="-20" on="1"/>
        <pt x="354" y="-20" on="0"/>
        <pt x="154" y="191" on="0"/>
        <pt x="154" y="389" on="1"/>
        <pt x="154" y="1118" on="1"/>
        <pt x="459" y="1118" on="1"/>
        <pt x="459" y="465" on="1"/>
        <pt x="459" y="344" on="0"/>
        <pt x="545" y="223" on="0"/>
        <pt x="639" y="223" on="1"/>
        <pt x="767" y="223" on="0"/>
        <pt x="881" y="394" on="0"/>
        <pt x="881" y="592" on="1"/>
        <pt x="881" y="1118" on="1"/>
        <pt x="1186" y="1118" on="1"/>
        <pt x="1186" y="0" on="1"/>
      </contour>
    </TTGlyph>
    <TTGlyph name="uni057E" xMin="154" yMin="-492" xMax="1401" yMax="1556">
      <contour>
        <pt x="885" y="127" on="1"/>
        <pt x="833" y="56" on="0"/>
        <pt x="661" y="-20" on="0"/>
        <pt x="551" y="-20" on="1"/>
        <pt x="354" y="-20" on="0"/>
        <pt x="154" y="191" on="0"/>
        <pt x="154" y="389" on="1"/>
        <pt x="154" y="1118" on="1"/>
        <pt x="459" y="1118" on="1"/>
        <pt x="459" y="465" on="1"/>
        <pt x="459" y="344" on="0"/>
        <pt x="545" y="223" on="0"/>
        <pt x="639" y="223" on="1"/>
        <pt x="767" y="223" on="0"/>
        <pt x="881" y="394" on="0"/>
        <pt x="881" y="592" on="1"/>
        <pt x="881" y="1556" on="1"/>
        <pt x="1186" y="1556" on="1"/>
        <pt x="1186" y="-246" on="1"/>
        <pt x="1401" y="-246" on="1"/>
        <pt x="1401" y="-492" on="1"/>
        <pt x="881" y="-492" on="1"/>
        <pt x="881" y="-121" on="1"/>
        <pt x="881" y="-54" on="0"/>
        <pt x="893" y="118" on="0"/>
        <pt x="895" y="127" on="1"/>
      </contour>
    </TTGlyph>
    <TTGlyph name="uni057F" xMin="154" yMin="-20" xMax="1851" yMax="1139">
      <contour>
        <pt x="881" y="143" on="1"/>
        <pt x="864" y="143" on="1"/>
        <pt x="817" y="66" on="0"/>
        <pt x="646" y="-20" on="0"/>
        <pt x="535" y="-20" on="1"/>
        <pt x="348" y="-20" on="0"/>
        <pt x="154" y="188" on="0"/>
        <pt x="154" y="389" on="1"/>
        <pt x="154" y="1118" on="1"/>
        <pt x="459" y="1118" on="1"/>
        <pt x="459" y="465" on="1"/>
        <pt x="459" y="344" on="0"/>
        <pt x="539" y="223" on="0"/>
        <pt x="627" y="223" on="1"/>
        <pt x="744" y="223" on="0"/>
        <pt x="850" y="392" on="0"/>
        <pt x="850" y="592" on="1"/>
        <pt x="850" y="1118" on="1"/>
        <pt x="1083" y="1118" on="1"/>
        <pt x="1124" y="975" on="1"/>
        <pt x="1141" y="975" on="1"/>
        <pt x="1188" y="1053" on="0"/>
        <pt x="1358" y="1139" on="0"/>
        <pt x="1470" y="1139" on="1"/>
        <pt x="1657" y="1139" on="0"/>
        <pt x="1851" y="931" on="0"/>
        <pt x="1851" y="729" on="1"/>
        <pt x="1851" y="0" on="1"/>
        <pt x="1546" y="0" on="1"/>
        <pt x="1546" y="653" on="1"/>
        <pt x="1546" y="774" on="0"/>
        <pt x="1466" y="895" on="0"/>
        <pt x="1378" y="895" on="1"/>
        <pt x="1261" y="895" on="0"/>
        <pt x="1155" y="725" on="0"/>
        <pt x="1155" y="526" on="1"/>
        <pt x="1155" y="0" on="1"/>
        <pt x="922" y="0" on="1"/>
      </contour>
    </TTGlyph>
    <TTGlyph name="uni0580" xMin="160" yMin="-492" xMax="1192" yMax="1139">
      <contour>
        <pt x="1192" y="0" on="1"/>
        <pt x="887" y="0" on="1"/>
        <pt x="887" y="653" on="1"/>
        <pt x="887" y="774" on="0"/>
        <pt x="801" y="895" on="0"/>
        <pt x="707" y="895" on="1"/>
        <pt x="579" y="895" on="0"/>
        <pt x="465" y="724" on="0"/>
        <pt x="465" y="526" on="1"/>
        <pt x="465" y="-492" on="1"/>
        <pt x="160" y="-492" on="1"/>
        <pt x="160" y="1118" on="1"/>
        <pt x="393" y="1118" on="1"/>
        <pt x="434" y="975" on="1"/>
        <pt x="451" y="975" on="1"/>
        <pt x="502" y="1056" on="0"/>
        <pt x="681" y="1139" on="0"/>
        <pt x="795" y="1139" on="1"/>
        <pt x="990" y="1139" on="0"/>
        <pt x="1192" y="928" on="0"/>
        <pt x="1192" y="729" on="1"/>
      </contour>
    </TTGlyph>
    <TTGlyph name="uni0581" xMin="92" yMin="-492" xMax="1137" yMax="1139">
      <contour>
        <pt x="623" y="219" on="1"/>
        <pt x="746" y="219" on="0"/>
        <pt x="852" y="360" on="0"/>
        <pt x="852" y="518" on="1"/>
        <pt x="852" y="555" on="1"/>
        <pt x="852" y="734" on="0"/>
        <pt x="742" y="891" on="0"/>
        <pt x="618" y="891" on="1"/>
        <pt x="403" y="891" on="0"/>
        <pt x="403" y="553" on="1"/>
        <pt x="403" y="385" on="0"/>
        <pt x="510" y="219" on="0"/>
      </contour>
      <contour>
        <pt x="1137" y="16" on="1"/>
        <pt x="1137" y="-249" on="0"/>
        <pt x="875" y="-492" on="0"/>
        <pt x="578" y="-492" on="1"/>
        <pt x="342" y="-492" on="0"/>
        <pt x="160" y="-426" on="1"/>
        <pt x="160" y="-174" on="1"/>
        <pt x="239" y="-207" on="0"/>
        <pt x="462" y="-246" on="0"/>
        <pt x="588" y="-246" on="1"/>
        <pt x="725" y="-246" on="0"/>
        <pt x="831" y="-146" on="0"/>
        <pt x="831" y="-14" on="1"/>
        <pt x="831" y="4" on="1"/>
        <pt x="831" y="40" on="0"/>
        <pt x="840" y="145" on="1"/>
        <pt x="831" y="145" on="1"/>
        <pt x="724" y="-20" on="0"/>
        <pt x="514" y="-20" on="1"/>
        <pt x="315" y="-20" on="0"/>
        <pt x="92" y="287" on="0"/>
        <pt x="92" y="557" on="1"/>
        <pt x="92" y="832" on="0"/>
        <pt x="321" y="1139" on="0"/>
        <pt x="522" y="1139" on="1"/>
        <pt x="728" y="1139" on="0"/>
        <pt x="846" y="975" on="1"/>
        <pt x="854" y="975" on="1"/>
        <pt x="895" y="1118" on="1"/>
        <pt x="1137" y="1118" on="1"/>
      </contour>
    </TTGlyph>
    <TTGlyph name="uni0582" xMin="160" yMin="0" xMax="700" yMax="1118">
      <contour>
        <pt x="160" y="1118" on="1"/>
        <pt x="465" y="1118" on="1"/>
        <pt x="465" y="246" on="1"/>
        <pt x="700" y="246" on="1"/>
        <pt x="700" y="0" on="1"/>
        <pt x="160" y="0" on="1"/>
      </contour>
    </TTGlyph>
    <TTGlyph name="uni0583" xMin="154" yMin="-492" xMax="1851" yMax="1556">
      <contour>
        <pt x="1147" y="975" on="1"/>
        <pt x="1247" y="1139" on="0"/>
        <pt x="1470" y="1139" on="1"/>
        <pt x="1657" y="1139" on="0"/>
        <pt x="1851" y="931" on="0"/>
        <pt x="1851" y="729" on="1"/>
        <pt x="1851" y="0" on="1"/>
        <pt x="1546" y="0" on="1"/>
        <pt x="1546" y="653" on="1"/>
        <pt x="1546" y="774" on="0"/>
        <pt x="1466" y="895" on="0"/>
        <pt x="1378" y="895" on="1"/>
        <pt x="1261" y="895" on="0"/>
        <pt x="1155" y="725" on="0"/>
        <pt x="1155" y="526" on="1"/>
        <pt x="1155" y="-492" on="1"/>
        <pt x="850" y="-492" on="1"/>
        <pt x="850" y="-121" on="1"/>
        <pt x="850" y="-33" on="0"/>
        <pt x="866" y="143" on="1"/>
        <pt x="858" y="143" on="1"/>
        <pt x="805" y="57" on="0"/>
        <pt x="635" y="-20" on="0"/>
        <pt x="535" y="-20" on="1"/>
        <pt x="348" y="-20" on="0"/>
        <pt x="154" y="188" on="0"/>
        <pt x="154" y="389" on="1"/>
        <pt x="154" y="1118" on="1"/>
        <pt x="459" y="1118" on="1"/>
        <pt x="459" y="465" on="1"/>
        <pt x="459" y="344" on="0"/>
        <pt x="539" y="223" on="0"/>
        <pt x="627" y="223" on="1"/>
        <pt x="744" y="223" on="0"/>
        <pt x="850" y="392" on="0"/>
        <pt x="850" y="592" on="1"/>
        <pt x="850" y="1556" on="1"/>
        <pt x="1155" y="1556" on="1"/>
        <pt x="1155" y="1237" on="1"/>
        <pt x="1155" y="1147" on="0"/>
        <pt x="1139" y="975" on="1"/>
      </contour>
    </TTGlyph>
    <TTGlyph name="uni0584" xMin="0" yMin="-492" xMax="1204" yMax="1139">
      <contour>
        <pt x="774" y="0" on="1"/>
        <pt x="678" y="0" on="0"/>
        <pt x="527" y="67" on="0"/>
        <pt x="465" y="143" on="1"/>
        <pt x="449" y="143" on="1"/>
        <pt x="465" y="7" on="0"/>
        <pt x="465" y="-18" on="1"/>
        <pt x="465" y="-131" on="1"/>
        <pt x="1163" y="-131" on="1"/>
        <pt x="1163" y="-330" on="1"/>
        <pt x="465" y="-330" on="1"/>
        <pt x="465" y="-492" on="1"/>
        <pt x="160" y="-492" on="1"/>
        <pt x="160" y="-330" on="1"/>
        <pt x="0" y="-330" on="1"/>
        <pt x="0" y="-131" on="1"/>
        <pt x="160" y="-131" on="1"/>
        <pt x="160" y="1118" on="1"/>
        <pt x="408" y="1118" on="1"/>
        <pt x="451" y="973" on="1"/>
        <pt x="465" y="973" on="1"/>
        <pt x="572" y="1139" on="0"/>
        <pt x="782" y="1139" on="1"/>
        <pt x="981" y="1139" on="0"/>
        <pt x="1204" y="841" on="0"/>
        <pt x="1204" y="571" on="1"/>
        <pt x="1204" y="301" on="0"/>
        <pt x="977" y="0" on="0"/>
      </contour>
      <contour>
        <pt x="684" y="895" on="1"/>
        <pt x="574" y="895" on="0"/>
        <pt x="469" y="761" on="0"/>
        <pt x="465" y="596" on="1"/>
        <pt x="465" y="584" on="1"/>
        <pt x="465" y="404" on="0"/>
        <pt x="572" y="248" on="0"/>
        <pt x="688" y="248" on="1"/>
        <pt x="793" y="248" on="0"/>
        <pt x="893" y="410" on="0"/>
        <pt x="893" y="575" on="1"/>
        <pt x="893" y="741" on="0"/>
        <pt x="792" y="895" on="0"/>
      </contour>
    </TTGlyph>
    <TTGlyph name="uni0585" xMin="92" yMin="-20" xMax="1176" yMax="1139">
      <contour>
        <pt x="403" y="561" on="1"/>
        <pt x="403" y="395" on="0"/>
        <pt x="512" y="225" on="0"/>
        <pt x="635" y="225" on="1"/>
        <pt x="757" y="225" on="0"/>
        <pt x="864" y="394" on="0"/>
        <pt x="864" y="561" on="1"/>
        <pt x="864" y="727" on="0"/>
        <pt x="756" y="893" on="0"/>
        <pt x="633" y="893" on="1"/>
        <pt x="511" y="893" on="0"/>
        <pt x="403" y="728" on="0"/>
      </contour>
      <contour>
        <pt x="1176" y="561" on="1"/>
        <pt x="1176" y="288" on="0"/>
        <pt x="888" y="-20" on="0"/>
        <pt x="631" y="-20" on="1"/>
        <pt x="470" y="-20" on="0"/>
        <pt x="224" y="121" on="0"/>
        <pt x="92" y="385" on="0"/>
        <pt x="92" y="561" on="1"/>
        <pt x="92" y="835" on="0"/>
        <pt x="378" y="1139" on="0"/>
        <pt x="637" y="1139" on="1"/>
        <pt x="798" y="1139" on="0"/>
        <pt x="1044" y="999" on="0"/>
        <pt x="1176" y="737" on="0"/>
      </contour>
    </TTGlyph>
    <TTGlyph name="uni0586" xMin="82" yMin="-492" xMax="1323" yMax="1556">
      <contour>
        <pt x="602" y="-20" on="1"/>
        <pt x="473" y="-17" on="0"/>
        <pt x="194" y="37" on="0"/>
        <pt x="82" y="80" on="1"/>
        <pt x="82" y="358" on="1"/>
        <pt x="362" y="244" on="0"/>
        <pt x="602" y="225" on="1"/>
        <pt x="602" y="655" on="1"/>
        <pt x="342" y="722" on="0"/>
        <pt x="106" y="956" on="0"/>
        <pt x="106" y="1133" on="1"/>
        <pt x="106" y="1336" on="0"/>
        <pt x="400" y="1556" on="0"/>
        <pt x="670" y="1556" on="1"/>
        <pt x="811" y="1556" on="1"/>
        <pt x="811" y="907" on="1"/>
        <pt x="1073" y="836" on="0"/>
        <pt x="1323" y="593" on="0"/>
        <pt x="1323" y="406" on="1"/>
        <pt x="1323" y="288" on="0"/>
        <pt x="1203" y="101" on="0"/>
        <pt x="971" y="-11" on="0"/>
        <pt x="811" y="-20" on="1"/>
        <pt x="811" y="-492" on="1"/>
        <pt x="602" y="-492" on="1"/>
      </contour>
      <contour>
        <pt x="1020" y="406" on="1"/>
        <pt x="1020" y="489" on="0"/>
        <pt x="908" y="601" on="0"/>
        <pt x="811" y="616" on="1"/>
        <pt x="811" y="225" on="1"/>
        <pt x="916" y="230" on="0"/>
        <pt x="1020" y="318" on="0"/>
      </contour>
      <contour>
        <pt x="410" y="1147" on="1"/>
        <pt x="410" y="1057" on="0"/>
        <pt x="503" y="966" on="0"/>
        <pt x="602" y="946" on="1"/>
        <pt x="602" y="1321" on="1"/>
        <pt x="516" y="1321" on="0"/>
        <pt x="410" y="1229" on="0"/>
      </contour>
    </TTGlyph>
    <TTGlyph name="uni0587" xMin="154" yMin="-20" xMax="1401" yMax="1556">
      <contour>
        <pt x="1401" y="246" on="1"/>
        <pt x="1401" y="0" on="1"/>
        <pt x="952" y="0" on="1"/>
        <pt x="911" y="143" on="1"/>
        <pt x="895" y="143" on="1"/>
        <pt x="846" y="65" on="0"/>
        <pt x="666" y="-20" on="0"/>
        <pt x="551" y="-20" on="1"/>
        <pt x="354" y="-20" on="0"/>
        <pt x="154" y="191" on="0"/>
        <pt x="154" y="389" on="1"/>
        <pt x="154" y="1556" on="1"/>
        <pt x="459" y="1556" on="1"/>
        <pt x="459" y="465" on="1"/>
        <pt x="459" y="344" on="0"/>
        <pt x="545" y="223" on="0"/>
        <pt x="639" y="223" on="1"/>
        <pt x="767" y="223" on="0"/>
        <pt x="881" y="394" on="0"/>
        <pt x="881" y="592" on="1"/>
        <pt x="881" y="1118" on="1"/>
        <pt x="1186" y="1118" on="1"/>
        <pt x="1186" y="246" on="1"/>
      </contour>
    </TTGlyph>
    <TTGlyph name="uni0589" xMin="117" yMin="-27" xMax="467" yMax="1139">
      <contour>
        <pt x="117" y="143" on="1"/>
        <pt x="117" y="227" on="0"/>
        <pt x="207" y="313" on="0"/>
        <pt x="293" y="313" on="1"/>
        <pt x="376" y="313" on="0"/>
        <pt x="467" y="225" on="0"/>
        <pt x="467" y="143" on="1"/>
        <pt x="467" y="64" on="0"/>
        <pt x="375" y="-27" on="0"/>
        <pt x="293" y="-27" on="1"/>
        <pt x="209" y="-27" on="0"/>
        <pt x="117" y="62" on="0"/>
      </contour>
      <contour>
        <pt x="117" y="969" on="1"/>
        <pt x="117" y="1053" on="0"/>
        <pt x="207" y="1139" on="0"/>
        <pt x="293" y="1139" on="1"/>
        <pt x="376" y="1139" on="0"/>
        <pt x="467" y="1051" on="0"/>
        <pt x="467" y="969" on="1"/>
        <pt x="467" y="888" on="0"/>
        <pt x="374" y="799" on="0"/>
        <pt x="293" y="799" on="1"/>
        <pt x="209" y="799" on="0"/>
        <pt x="117" y="887" on="0"/>
      </contour>
    </TTGlyph>
    <TTGlyph name="uni058A" xMin="82" yMin="371" xMax="836" yMax="750">
      <contour>
        <pt x="324" y="750" on="1"/>
        <pt x="324" y="612" on="0"/>
        <pt x="438" y="612" on="1"/>
        <pt x="580" y="612" on="0"/>
        <pt x="786" y="651" on="1"/>
        <pt x="836" y="479" on="1"/>
        <pt x="747" y="433" on="0"/>
        <pt x="470" y="371" on="0"/>
        <pt x="362" y="371" on="1"/>
        <pt x="218" y="371" on="0"/>
        <pt x="82" y="554" on="0"/>
        <pt x="82" y="750" on="1"/>
      </contour>
    </TTGlyph>
    <TTGlyph name="uni058F" xMin="-14" yMin="0" xMax="1040" yMax="1485">
      <contour>
        <pt x="356" y="1237" on="1"/>
        <pt x="287" y="1237" on="0"/>
        <pt x="156" y="1203" on="0"/>
        <pt x="78" y="1174" on="1"/>
        <pt x="-14" y="1403" on="1"/>
        <pt x="31" y="1422" on="0"/>
        <pt x="132" y="1453" on="0"/>
        <pt x="238" y="1474" on="0"/>
        <pt x="346" y="1485" on="0"/>
        <pt x="397" y="1485" on="1"/>
        <pt x="603" y="1485" on="0"/>
        <pt x="797" y="1270" on="0"/>
        <pt x="797" y="1065" on="1"/>
        <pt x="797" y="950" on="1"/>
        <pt x="1040" y="950" on="1"/>
        <pt x="1040" y="774" on="1"/>
        <pt x="797" y="774" on="1"/>
        <pt x="797" y="659" on="1"/>
        <pt x="1040" y="659" on="1"/>
        <pt x="1040" y="481" on="1"/>
        <pt x="797" y="481" on="1"/>
        <pt x="797" y="0" on="1"/>
        <pt x="489" y="0" on="1"/>
        <pt x="489" y="481" on="1"/>
        <pt x="174" y="481" on="1"/>
        <pt x="174" y="659" on="1"/>
        <pt x="489" y="659" on="1"/>
        <pt x="489" y="774" on="1"/>
        <pt x="174" y="774" on="1"/>
        <pt x="174" y="950" on="1"/>
        <pt x="489" y="950" on="1"/>
        <pt x="489" y="1059" on="1"/>
        <pt x="489" y="1110" on="0"/>
        <pt x="474" y="1179" on="0"/>
        <pt x="442" y="1220" on="0"/>
        <pt x="392" y="1237" on="0"/>
      </contour>
    </TTGlyph>
    <TTGlyph name="uniFB13" xMin="154" yMin="-20" xMax="2568" yMax="1567">
      <contour>
        <pt x="1872" y="1118" on="1"/>
        <pt x="1872" y="465" on="1"/>
        <pt x="1872" y="344" on="0"/>
        <pt x="1952" y="223" on="0"/>
        <pt x="2040" y="223" on="1"/>
        <pt x="2157" y="223" on="0"/>
        <pt x="2263" y="392" on="0"/>
        <pt x="2263" y="592" on="1"/>
        <pt x="2263" y="1118" on="1"/>
        <pt x="2568" y="1118" on="1"/>
        <pt x="2568" y="0" on="1"/>
        <pt x="2335" y="0" on="1"/>
        <pt x="2294" y="143" on="1"/>
        <pt x="2277" y="143" on="1"/>
        <pt x="2230" y="66" on="0"/>
        <pt x="2059" y="-20" on="0"/>
        <pt x="1948" y="-20" on="1"/>
        <pt x="1761" y="-20" on="0"/>
        <pt x="1567" y="188" on="0"/>
        <pt x="1567" y="389" on="1"/>
        <pt x="1567" y="889" on="1"/>
        <pt x="1186" y="889" on="1"/>
        <pt x="1186" y="0" on="1"/>
        <pt x="936" y="0" on="1"/>
        <pt x="895" y="127" on="1"/>
        <pt x="885" y="127" on="1"/>
        <pt x="833" y="56" on="0"/>
        <pt x="661" y="-20" on="0"/>
        <pt x="551" y="-20" on="1"/>
        <pt x="354" y="-20" on="0"/>
        <pt x="154" y="191" on="0"/>
        <pt x="154" y="389" on="1"/>
        <pt x="154" y="1118" on="1"/>
        <pt x="459" y="1118" on="1"/>
        <pt x="459" y="465" on="1"/>
        <pt x="459" y="344" on="0"/>
        <pt x="545" y="223" on="0"/>
        <pt x="639" y="223" on="1"/>
        <pt x="767" y="223" on="0"/>
        <pt x="881" y="394" on="0"/>
        <pt x="881" y="592" on="1"/>
        <pt x="881" y="889" on="1"/>
        <pt x="689" y="889" on="0"/>
        <pt x="512" y="1034" on="0"/>
        <pt x="512" y="1196" on="1"/>
        <pt x="512" y="1255" on="0"/>
        <pt x="542" y="1367" on="0"/>
        <pt x="563" y="1405" on="1"/>
        <pt x="786" y="1333" on="1"/>
        <pt x="758" y="1275" on="0"/>
        <pt x="758" y="1227" on="1"/>
        <pt x="758" y="1168" on="0"/>
        <pt x="813" y="1118" on="0"/>
        <pt x="881" y="1118" on="1"/>
        <pt x="881" y="1176" on="1"/>
        <pt x="881" y="1379" on="0"/>
        <pt x="1064" y="1567" on="0"/>
        <pt x="1276" y="1567" on="1"/>
        <pt x="1401" y="1567" on="0"/>
        <pt x="1544" y="1511" on="1"/>
        <pt x="1466" y="1288" on="1"/>
        <pt x="1383" y="1325" on="0"/>
        <pt x="1309" y="1325" on="1"/>
        <pt x="1244" y="1325" on="0"/>
        <pt x="1186" y="1248" on="0"/>
        <pt x="1186" y="1188" on="1"/>
        <pt x="1186" y="1118" on="1"/>
      </contour>
    </TTGlyph>
    <TTGlyph name="uniFB14" xMin="154" yMin="-20" xMax="2537" yMax="1556">
      <contour>
        <pt x="2310" y="0" on="1"/>
        <pt x="2271" y="143" on="1"/>
        <pt x="2255" y="143" on="1"/>
        <pt x="2209" y="67" on="0"/>
        <pt x="2035" y="-20" on="0"/>
        <pt x="1923" y="-20" on="1"/>
        <pt x="1734" y="-20" on="0"/>
        <pt x="1536" y="188" on="0"/>
        <pt x="1536" y="389" on="1"/>
        <pt x="1536" y="1315" on="1"/>
        <pt x="1278" y="1315" on="1"/>
        <pt x="1220" y="1315" on="0"/>
        <pt x="1155" y="1245" on="0"/>
        <pt x="1155" y="1178" on="1"/>
        <pt x="1155" y="0" on="1"/>
        <pt x="905" y="0" on="1"/>
        <pt x="864" y="127" on="1"/>
        <pt x="854" y="127" on="1"/>
        <pt x="806" y="57" on="0"/>
        <pt x="641" y="-20" on="0"/>
        <pt x="535" y="-20" on="1"/>
        <pt x="348" y="-20" on="0"/>
        <pt x="154" y="188" on="0"/>
        <pt x="154" y="389" on="1"/>
        <pt x="154" y="1118" on="1"/>
        <pt x="459" y="1118" on="1"/>
        <pt x="459" y="465" on="1"/>
        <pt x="459" y="344" on="0"/>
        <pt x="539" y="223" on="0"/>
        <pt x="627" y="223" on="1"/>
        <pt x="744" y="223" on="0"/>
        <pt x="850" y="392" on="0"/>
        <pt x="850" y="592" on="1"/>
        <pt x="850" y="1165" on="1"/>
        <pt x="850" y="1367" on="0"/>
        <pt x="1032" y="1556" on="0"/>
        <pt x="1245" y="1556" on="1"/>
        <pt x="1841" y="1556" on="1"/>
        <pt x="1841" y="1118" on="1"/>
        <pt x="2537" y="1118" on="1"/>
        <pt x="2537" y="872" on="1"/>
        <pt x="1841" y="872" on="1"/>
        <pt x="1841" y="465" on="1"/>
        <pt x="1841" y="344" on="0"/>
        <pt x="1921" y="223" on="0"/>
        <pt x="2009" y="223" on="1"/>
        <pt x="2127" y="223" on="0"/>
        <pt x="2232" y="393" on="0"/>
        <pt x="2232" y="592" on="1"/>
        <pt x="2232" y="688" on="1"/>
        <pt x="2537" y="688" on="1"/>
        <pt x="2537" y="0" on="1"/>
      </contour>
    </TTGlyph>
    <TTGlyph name="uniFB15" xMin="154" yMin="-492" xMax="2537" yMax="1556">
      <contour>
        <pt x="1841" y="1237" on="1"/>
        <pt x="1841" y="1147" on="0"/>
        <pt x="1825" y="975" on="1"/>
        <pt x="1833" y="975" on="1"/>
        <pt x="1933" y="1139" on="0"/>
        <pt x="2157" y="1139" on="1"/>
        <pt x="2343" y="1139" on="0"/>
        <pt x="2537" y="931" on="0"/>
        <pt x="2537" y="729" on="1"/>
        <pt x="2537" y="0" on="1"/>
        <pt x="2232" y="0" on="1"/>
        <pt x="2232" y="653" on="1"/>
        <pt x="2232" y="774" on="0"/>
        <pt x="2152" y="895" on="0"/>
        <pt x="2064" y="895" on="1"/>
        <pt x="1947" y="895" on="0"/>
        <pt x="1841" y="725" on="0"/>
        <pt x="1841" y="526" on="1"/>
        <pt x="1841" y="-492" on="1"/>
        <pt x="1536" y="-492" on="1"/>
        <pt x="1536" y="1315" on="1"/>
        <pt x="1278" y="1315" on="1"/>
        <pt x="1220" y="1315" on="0"/>
        <pt x="1155" y="1245" on="0"/>
        <pt x="1155" y="1178" on="1"/>
        <pt x="1155" y="0" on="1"/>
        <pt x="905" y="0" on="1"/>
        <pt x="864" y="127" on="1"/>
        <pt x="854" y="127" on="1"/>
        <pt x="806" y="57" on="0"/>
        <pt x="641" y="-20" on="0"/>
        <pt x="535" y="-20" on="1"/>
        <pt x="348" y="-20" on="0"/>
        <pt x="154" y="188" on="0"/>
        <pt x="154" y="389" on="1"/>
        <pt x="154" y="1118" on="1"/>
        <pt x="459" y="1118" on="1"/>
        <pt x="459" y="465" on="1"/>
        <pt x="459" y="344" on="0"/>
        <pt x="539" y="223" on="0"/>
        <pt x="627" y="223" on="1"/>
        <pt x="744" y="223" on="0"/>
        <pt x="850" y="392" on="0"/>
        <pt x="850" y="592" on="1"/>
        <pt x="850" y="1165" on="1"/>
        <pt x="850" y="1367" on="0"/>
        <pt x="1032" y="1556" on="0"/>
        <pt x="1245" y="1556" on="1"/>
        <pt x="1841" y="1556" on="1"/>
      </contour>
    </TTGlyph>
    <TTGlyph name="uniFB16" xMin="154" yMin="-492" xMax="2568" yMax="1556">
      <contour>
        <pt x="881" y="1556" on="1"/>
        <pt x="1186" y="1556" on="1"/>
        <pt x="1186" y="1118" on="1"/>
        <pt x="1872" y="1118" on="1"/>
        <pt x="1872" y="465" on="1"/>
        <pt x="1872" y="344" on="0"/>
        <pt x="1952" y="223" on="0"/>
        <pt x="2040" y="223" on="1"/>
        <pt x="2157" y="223" on="0"/>
        <pt x="2263" y="392" on="0"/>
        <pt x="2263" y="592" on="1"/>
        <pt x="2263" y="1118" on="1"/>
        <pt x="2568" y="1118" on="1"/>
        <pt x="2568" y="0" on="1"/>
        <pt x="2335" y="0" on="1"/>
        <pt x="2294" y="143" on="1"/>
        <pt x="2277" y="143" on="1"/>
        <pt x="2230" y="66" on="0"/>
        <pt x="2059" y="-20" on="0"/>
        <pt x="1948" y="-20" on="1"/>
        <pt x="1761" y="-20" on="0"/>
        <pt x="1567" y="188" on="0"/>
        <pt x="1567" y="389" on="1"/>
        <pt x="1567" y="889" on="1"/>
        <pt x="1186" y="889" on="1"/>
        <pt x="1186" y="-246" on="1"/>
        <pt x="1462" y="-246" on="1"/>
        <pt x="1462" y="-492" on="1"/>
        <pt x="881" y="-492" on="1"/>
        <pt x="881" y="-121" on="1"/>
        <pt x="881" y="-54" on="0"/>
        <pt x="893" y="118" on="0"/>
        <pt x="895" y="127" on="1"/>
        <pt x="885" y="127" on="1"/>
        <pt x="833" y="56" on="0"/>
        <pt x="661" y="-20" on="0"/>
        <pt x="551" y="-20" on="1"/>
        <pt x="354" y="-20" on="0"/>
        <pt x="154" y="191" on="0"/>
        <pt x="154" y="389" on="1"/>
        <pt x="154" y="1118" on="1"/>
        <pt x="459" y="1118" on="1"/>
        <pt x="459" y="465" on="1"/>
        <pt x="459" y="344" on="0"/>
        <pt x="545" y="223" on="0"/>
        <pt x="639" y="223" on="1"/>
        <pt x="767" y="223" on="0"/>
        <pt x="881" y="394" on="0"/>
        <pt x="881" y="592" on="1"/>
        <pt x="881" y="889" on="1"/>
        <pt x="689" y="889" on="0"/>
        <pt x="512" y="1034" on="0"/>
        <pt x="512" y="1196" on="1"/>
        <pt x="512" y="1255" on="0"/>
        <pt x="542" y="1367" on="0"/>
        <pt x="563" y="1405" on="1"/>
        <pt x="786" y="1333" on="1"/>
        <pt x="758" y="1275" on="0"/>
        <pt x="758" y="1227" on="1"/>
        <pt x="758" y="1168" on="0"/>
        <pt x="813" y="1118" on="0"/>
        <pt x="881" y="1118" on="1"/>
      </contour>
    </TTGlyph>
    <TTGlyph name="uniFB17" xMin="154" yMin="-492" xMax="3234" yMax="1556">
      <contour>
        <pt x="2537" y="461" on="1"/>
        <pt x="2537" y="348" on="0"/>
        <pt x="2628" y="225" on="0"/>
        <pt x="2734" y="225" on="1"/>
        <pt x="2832" y="225" on="0"/>
        <pt x="2929" y="339" on="0"/>
        <pt x="2929" y="461" on="1"/>
        <pt x="2929" y="1118" on="1"/>
        <pt x="3234" y="1118" on="1"/>
        <pt x="3234" y="422" on="1"/>
        <pt x="3234" y="198" on="0"/>
        <pt x="2985" y="-20" on="0"/>
        <pt x="2734" y="-20" on="1"/>
        <pt x="2484" y="-20" on="0"/>
        <pt x="2232" y="193" on="0"/>
        <pt x="2232" y="422" on="1"/>
        <pt x="2232" y="653" on="1"/>
        <pt x="2232" y="774" on="0"/>
        <pt x="2152" y="895" on="0"/>
        <pt x="2064" y="895" on="1"/>
        <pt x="1947" y="895" on="0"/>
        <pt x="1841" y="725" on="0"/>
        <pt x="1841" y="526" on="1"/>
        <pt x="1841" y="-492" on="1"/>
        <pt x="1536" y="-492" on="1"/>
        <pt x="1536" y="1315" on="1"/>
        <pt x="1278" y="1315" on="1"/>
        <pt x="1220" y="1315" on="0"/>
        <pt x="1155" y="1245" on="0"/>
        <pt x="1155" y="1178" on="1"/>
        <pt x="1155" y="0" on="1"/>
        <pt x="905" y="0" on="1"/>
        <pt x="864" y="127" on="1"/>
        <pt x="854" y="127" on="1"/>
        <pt x="806" y="57" on="0"/>
        <pt x="641" y="-20" on="0"/>
        <pt x="535" y="-20" on="1"/>
        <pt x="348" y="-20" on="0"/>
        <pt x="154" y="188" on="0"/>
        <pt x="154" y="389" on="1"/>
        <pt x="154" y="1118" on="1"/>
        <pt x="459" y="1118" on="1"/>
        <pt x="459" y="465" on="1"/>
        <pt x="459" y="344" on="0"/>
        <pt x="539" y="223" on="0"/>
        <pt x="627" y="223" on="1"/>
        <pt x="744" y="223" on="0"/>
        <pt x="850" y="392" on="0"/>
        <pt x="850" y="592" on="1"/>
        <pt x="850" y="1165" on="1"/>
        <pt x="850" y="1367" on="0"/>
        <pt x="1032" y="1556" on="0"/>
        <pt x="1245" y="1556" on="1"/>
        <pt x="1841" y="1556" on="1"/>
        <pt x="1841" y="1237" on="1"/>
        <pt x="1841" y="1147" on="0"/>
        <pt x="1825" y="975" on="1"/>
        <pt x="1833" y="975" on="1"/>
        <pt x="1933" y="1139" on="0"/>
        <pt x="2157" y="1139" on="1"/>
        <pt x="2343" y="1139" on="0"/>
        <pt x="2537" y="931" on="0"/>
        <pt x="2537" y="729" on="1"/>
      </contour>
    </TTGlyph>
</ttFont>
